<svg width="64" height="64" fill="none" xmlns="http://www.w3.org/2000/svg"><g clip-path="url(#clip0)"><path d="M53.2 6.2c-.267-.267-.533-.267-1.067-.267-2.4.534-4.8.8-7.2.8-5.866 0-11.2-1.333-14.4-3.733-.533-.267-1.066-.267-1.333 0-3.467 2.4-8.8 3.733-14.4 3.733-2.4 0-5.067-.266-7.2-.8-.267 0-.8 0-1.067.267C6 6.467 6 6.733 6 7v19.467A35.369 35.369 0 0029.467 59.8h.8a35.369 35.369 0 0023.466-33.333V7c0-.267-.266-.533-.533-.8zm-1.867 20.267c0 6.933-2.133 13.6-6.133 18.933-.267 0-.267-.267-.533-.267-1.334-.533-2.667-.8-4-1.066l-3.2-.8L37.2 43c-1.6-.533-2.133-.8-2.4-4h6.4c.533 0 .8-.267 1.067-.533.266-.267.266-.8.266-1.067L38.8 23.533v-.266c-.8-4-4.267-6.934-8.533-6.934-4.267 0-8 2.934-8.8 6.934v.266L17.733 37.4c0 .267 0 .8.267 1.067.267.266.533.533 1.067.533h5.6c-.267 3.467-.267 3.467-2.134 4 0 0-.266 0-.266.267-1.334.266-2.4.8-3.467.8-1.333.266-2.933.8-4.267 1.333l-.266.267c-4-5.334-6.134-12-6.134-18.934V8.6c2.134.267 4.267.533 6.4.533C20.4 9.133 26 7.8 29.733 5.4c3.734 2.4 9.334 3.733 15.2 3.733 2.134 0 4.267-.266 6.4-.533v17.867z" fill="#245C97"/></g><defs><clipPath id="clip0"><path fill="#fff" d="M0 0h64v64H0z"/></clipPath></defs></svg>