<svg width="50" height="56" fill="none" xmlns="http://www.w3.org/2000/svg"><path d="M25.262 55.896h-.434c-4.965.111-9.296-1.636-12.87-5.199-2.816-2.806-5.176-6.758-7.013-11.745-1.447-3.93-2.572-8.517-3.362-13.638C.247 16.631.358 9.506.369 9.205c.011-.412.19-.802.512-1.058a1.447 1.447 0 011.136-.3C18.249 10.73 23.526 1.089 23.581.989a1.406 1.406 0 011.247-.757c.523 0 1.002.29 1.247.746.011.022 1.347 2.46 4.642 4.509 4.431 2.76 10.131 3.551 16.922 2.349.401-.067.824.033 1.136.3.323.256.5.646.512 1.058.011.3.122 7.425-1.214 16.109-.79 5.121-1.914 9.708-3.362 13.638-1.837 4.998-4.197 8.95-7.013 11.745-3.474 3.462-7.649 5.21-12.436 5.21zm-.434-2.817h.034c4.185.1 7.837-1.369 10.854-4.375 4.564-4.542 7.87-12.758 9.574-23.78.935-6.067 1.136-11.466 1.18-14.06-3.518.478-6.813.423-9.808-.145-2.816-.523-5.366-1.525-7.603-2.939a17.9 17.9 0 01-4.23-3.707 18.39 18.39 0 01-4.231 3.707c-2.227 1.425-4.787 2.416-7.604 2.95-2.995.568-6.29.612-9.808.145.044 2.583.245 7.982 1.18 14.06 1.692 11.011 5.01 19.238 9.574 23.78 3.017 3.006 6.669 4.476 10.855 4.375.01-.01.022-.01.033-.01z" fill="#245C97"/><path d="M7.305 28.12H24.75V7.524c-3.073 2.817-8.427 6.012-16.922 6.012-.723 0-1.47-.023-2.226-.067.122 2.805.412 6.758 1.068 11.066.2 1.224.412 2.427.635 3.585zm17.445-.112v22.734h.368c3.495 0 6.445-1.258 8.995-3.83 3.696-3.74 6.524-10.231 8.238-18.904h-17.6z" fill="#245C97"/></svg>