<svg width="377" height="374" fill="none" xmlns="http://www.w3.org/2000/svg"><path d="M376.404 383.637L115.736 228.662l-3.74 2.143L376.404 388v-4.363z" fill="url(#paint0_linear)"/><path d="M4.977 181.803c7.548 4.358 13.888 9.333 21.436 13.69.913-.526 3.214-1.853 6.556-3.777-7.548-4.357-13.951-9.296-21.5-13.654a6987.845 6987.845 0 00-6.492 3.741z" fill="#000"/><path d="M11.469 178.062c7.549 4.359 13.952 9.297 21.5 13.654l12.803-7.37c-7.548-4.358-14.121-9.199-21.67-13.558l-12.633 7.274z" fill="#3C3C3C"/><path d="M24.102 170.788c7.549 4.359 14.122 9.2 21.67 13.557l16.968-9.766c-7.548-4.358-14.362-9.062-21.91-13.419l-16.727 9.628z" fill="#707070"/><path d="M40.83 161.16c7.548 4.357 14.362 9.061 21.91 13.419l19.05-10.963c-7.549-4.358-14.638-8.905-22.186-13.263L40.83 161.16z" fill="#9B9B9B"/><path d="M59.604 150.353c7.548 4.358 14.638 8.905 22.185 13.263l19.05-10.964c-7.548-4.358-14.912-8.748-22.46-13.106l-18.775 10.807z" fill="#BFBFBF"/><path d="M78.378 139.546c7.549 4.358 14.913 8.748 22.461 13.106l16.968-9.766c-7.548-4.358-15.153-8.611-22.701-12.969l-16.728 9.629z" fill="#DBDBDB"/><path d="M95.106 129.917c7.548 4.358 15.153 8.611 22.701 12.969l12.803-7.371c-7.548-4.358-15.323-8.514-22.871-12.871l-12.633 7.273z" fill="#EFEFEF"/><path d="M107.739 122.644c7.548 4.357 15.323 8.513 22.871 12.871l6.557-3.777c-7.549-4.358-15.388-8.477-22.936-12.835l-6.492 3.741z" fill="#FBFBFB"/><path d="M114.231 118.903c7.548 4.358 15.387 8.477 22.936 12.835 7.846-4.53 60.638-34.91 68.483-39.44-7.548-4.356-15.128-8.735-22.676-13.093-7.846 4.53-60.897 35.169-68.743 39.698z" fill="#fff"/><path d="M59.022 213.687c7.548 4.358 13.887 9.333 21.436 13.691.913-.527 3.214-1.853 6.556-3.777-7.548-4.358-13.952-9.297-21.5-13.655a9596.541 9596.541 0 00-6.492 3.741z" fill="#000"/><path d="M65.514 209.946c7.548 4.359 13.952 9.297 21.5 13.655l12.804-7.371c-7.549-4.358-14.122-9.199-21.67-13.557l-12.634 7.273z" fill="#3C3C3C"/><path d="M78.148 202.673c7.548 4.358 14.121 9.199 21.67 13.557l16.967-9.766c-7.548-4.358-14.362-9.062-21.91-13.42l-16.727 9.629z" fill="#707070"/><path d="M94.875 193.044c7.548 4.358 14.362 9.062 21.91 13.42l19.05-10.964c-7.548-4.358-14.637-8.905-22.186-13.263l-18.774 10.807z" fill="#9B9B9B"/><path d="M113.649 182.237c7.549 4.358 14.638 8.905 22.186 13.263l19.05-10.963c-7.548-4.359-14.913-8.749-22.461-13.106l-18.775 10.806z" fill="#BFBFBF"/><path d="M132.424 171.431c7.548 4.357 14.913 8.747 22.461 13.105l16.968-9.766c-7.548-4.358-15.154-8.611-22.701-12.968l-16.728 9.629z" fill="#DBDBDB"/><path d="M149.152 161.801c7.547 4.358 15.153 8.611 22.701 12.969l12.803-7.371c-7.548-4.358-15.323-8.513-22.871-12.871l-12.633 7.273z" fill="#EFEFEF"/><path d="M161.785 154.528c7.548 4.358 15.323 8.513 22.871 12.872 3.343-1.925 5.644-3.251 6.557-3.778-7.548-4.358-15.388-8.477-22.936-12.835-.913.527-3.191 1.84-6.492 3.741z" fill="#FBFBFB"/><path d="M168.277 150.787c7.548 4.358 15.388 8.477 22.936 12.835 7.846-4.53 60.638-34.909 68.484-39.438-7.548-4.358-15.129-8.737-22.677-13.094-7.845 4.529-60.898 35.167-68.743 39.697z" fill="#fff"/><path d="M112.446 244.08c7.548 4.358 13.887 9.333 21.435 13.691.913-.527 3.214-1.853 6.557-3.778-7.548-4.357-13.952-9.296-21.5-13.654a9596.541 9596.541 0 00-6.492 3.741z" fill="#000"/><path d="M118.938 240.339c7.548 4.358 13.952 9.297 21.5 13.654l12.803-7.37c-7.548-4.358-14.122-9.199-21.67-13.558l-12.633 7.274z" fill="#3C3C3C"/><path d="M131.571 233.065c7.548 4.359 14.122 9.2 21.67 13.557l16.968-9.766c-7.549-4.357-14.363-9.062-21.911-13.42l-16.727 9.629z" fill="#707070"/><path d="M148.298 223.436c7.548 4.359 14.362 9.063 21.911 13.42l19.049-10.963c-7.548-4.358-14.638-8.905-22.185-13.263l-18.775 10.806z" fill="#9B9B9B"/><path d="M167.073 212.63c7.547 4.358 14.637 8.905 22.185 13.263l19.05-10.964c-7.549-4.358-14.913-8.748-22.461-13.106l-18.774 10.807z" fill="#BFBFBF"/><path d="M185.847 201.823c7.548 4.358 14.912 8.749 22.461 13.106l16.967-9.766c-7.549-4.358-15.153-8.611-22.701-12.969l-16.727 9.629z" fill="#DBDBDB"/><path d="M202.574 192.194c7.548 4.358 15.152 8.611 22.701 12.969l12.803-7.371c-7.549-4.357-15.323-8.513-22.871-12.872-3.301 1.902-7.626 4.392-12.633 7.274z" fill="#EFEFEF"/><path d="M215.207 184.92c7.548 4.359 15.322 8.515 22.871 12.872 3.343-1.924 5.644-3.249 6.556-3.777-7.548-4.358-15.387-8.477-22.936-12.835-.912.527-3.19 1.839-6.491 3.74z" fill="#FBFBFB"/><path d="M221.698 181.18c7.549 4.358 15.388 8.477 22.936 12.835 7.846-4.529 60.638-34.909 68.484-39.439-7.549-4.357-15.129-8.736-22.677-13.093l-68.743 39.697z" fill="#fff"/><path d="M26.424 195.493V0l26.422 177.72-26.424 17.772z" fill="url(#paint1_linear)"/><path d="M26.424 0L0 177.72l26.424 17.772V0z" fill="url(#paint2_linear)"/><path d="M54.072 212.123L80.495 74.822v152.555l-26.423-15.254z" fill="url(#paint3_linear)"/><path d="M80.495 74.822l26.424 137.301-26.424 15.254V74.822z" fill="url(#paint4_linear)"/><path d="M160.372 242.516l-26.424 15.255V150.982l26.424 91.534z" fill="url(#paint5_linear)"/><path d="M133.948 150.982l-26.423 91.534 26.423 15.255V150.982z" fill="url(#paint6_linear)"/><defs><linearGradient id="paint0_linear" x1="556.235" y1="308.331" x2="65.264" y2="308.331" gradientUnits="userSpaceOnUse"><stop stop-color="#FAAD17"/><stop offset="1" stop-color="#EE8D21"/></linearGradient><linearGradient id="paint1_linear" x1="-1.412" y1="321.46" x2="57.876" y2="-14.501" gradientUnits="userSpaceOnUse"><stop stop-color="#1ABDC2"/><stop offset="1" stop-color="#0D5F61"/></linearGradient><linearGradient id="paint2_linear" x1="6.545" y1="191.268" x2="46.302" y2="4.225" gradientUnits="userSpaceOnUse"><stop stop-color="#1ABDC2"/><stop offset="1" stop-color="#0D5F61"/></linearGradient><linearGradient id="paint3_linear" x1="59.255" y1="250.928" x2="122.87" y2="-48.063" gradientUnits="userSpaceOnUse"><stop stop-color="#1ABDC2"/><stop offset="1" stop-color="#FAAD17"/></linearGradient><linearGradient id="paint4_linear" x1="62.827" y1="318.456" x2="113.72" y2="30.067" gradientUnits="userSpaceOnUse"><stop stop-color="#1ABDC2"/><stop offset="1" stop-color="#FAAD17"/></linearGradient><linearGradient id="paint5_linear" x1="123.325" y1="331.814" x2="174.217" y2="43.427" gradientUnits="userSpaceOnUse"><stop stop-color="#FAAD17"/><stop offset="1" stop-color="#EE8D21"/></linearGradient><linearGradient id="paint6_linear" x1="117.427" y1="265.699" x2="181.042" y2="-33.291" gradientUnits="userSpaceOnUse"><stop stop-color="#FAAD17"/><stop offset="1" stop-color="#EE8D21"/></linearGradient></defs></svg>