<svg width="63" height="56" fill="none" xmlns="http://www.w3.org/2000/svg"><path d="M30.148 5.59a1.502 1.502 0 01-2.096.357 15.824 15.824 0 00-9.172-2.914c-8.741 0-15.862 7.106-15.862 15.847s7.12 15.847 15.861 15.847a15.37 15.37 0 003.895-.49 22.73 22.73 0 00-.089 2.021c0 .357.015.729.03 1.085a18.056 18.056 0 01-3.835.402C8.473 37.745 0 29.287 0 18.881S8.473 0 18.88 0a18.72 18.72 0 0110.91 3.478c.684.491.848 1.427.357 2.111zm3.642 7.893a1.51 1.51 0 01.907-1.932 1.517 1.517 0 011.932.907c.431 1.189.729 2.409.907 3.657-.995.298-1.962.684-2.898 1.13a14.835 14.835 0 00-.848-3.762z" fill="#245C97"/><path d="M35.671 5.964c-.364.566-.748 1.153-1.112 1.72a302.448 302.448 0 00-2.812 4.228c-1.134 1.7-2.246 3.378-3.379 5.078-1.011 1.518-2.023 3.035-3.014 4.552-.567.83-1.113 1.68-1.68 2.488-.708.992-2.226 1.72-3.399 1.133-.465-.222-1.032-.667-1.335-1.092-.04-.06-.081-.122-.142-.182-.121-.182-.242-.344-.363-.526l-.547-.789a28.148 28.148 0 00-.688-.951c-.243-.364-.506-.729-.748-1.072-.264-.384-.527-.748-.79-1.113-.243-.344-.506-.708-.748-1.072-.223-.323-.445-.648-.688-.971-.162-.242-.344-.485-.526-.748l-.425-.607a.435.435 0 01-.06-.101 1.86 1.86 0 01-.223-.668 1.32 1.32 0 01.344-1.012 1.88 1.88 0 01.83-.465s.404-.142 1.072.283l5.726 4.795c.404-.445.789-.91 1.193-1.375l2.933-3.359c1.215-1.376 2.408-2.771 3.602-4.148a296.84 296.84 0 003.257-3.722c.627-.749 1.254-1.498 1.982-2.185.567-.526 1.255-.263 1.74.222 0 0 .708.708 0 1.659zm8.114 49.164c-10.405 0-18.871-8.466-18.871-18.87 0-10.405 8.465-18.87 18.871-18.87 3.944 0 7.721 1.203 10.925 3.48a1.511 1.511 0 01-1.75 2.462 15.747 15.747 0 00-9.175-2.922c-8.74 0-15.85 7.11-15.85 15.85 0 8.739 7.11 15.85 15.85 15.85 8.74 0 15.85-7.111 15.85-15.85a15.8 15.8 0 00-.938-5.386 1.51 1.51 0 012.841-1.027 18.836 18.836 0 011.118 6.413c0 10.404-8.465 18.87-18.871 18.87z" fill="#245C97"/><path d="M60.581 23.347c-.364.566-.748 1.153-1.112 1.72a302.443 302.443 0 00-2.812 4.228c-1.133 1.7-2.245 3.378-3.378 5.078-1.012 1.518-2.024 3.035-3.015 4.552-.567.83-1.113 1.68-1.68 2.489-.708.991-2.225 1.72-3.399 1.133-.465-.223-1.032-.668-1.335-1.093-.04-.06-.08-.121-.141-.182-.122-.182-.243-.344-.364-.526l-.547-.789a28.148 28.148 0 00-.688-.951c-.242-.364-.505-.728-.748-1.072-.263-.384-.526-.748-.789-1.113-.243-.344-.506-.708-.748-1.072-.223-.324-.446-.648-.689-.971-.162-.242-.344-.486-.526-.748l-.425-.608a.435.435 0 01-.06-.1 1.86 1.86 0 01-.222-.668 1.32 1.32 0 01.343-1.012 1.88 1.88 0 01.83-.465s.404-.142 1.072.283l5.726 4.795c.404-.445.789-.91 1.194-1.376L50 31.521c1.214-1.376 2.407-2.771 3.601-4.148a285.673 285.673 0 003.258-3.722c.627-.748 1.254-1.497 1.982-2.185.566-.526 1.255-.263 1.74.223 0-.001.708.707 0 1.658z" fill="#245C97"/></svg>