<svg width="64" height="64" fill="none" xmlns="http://www.w3.org/2000/svg"><path d="M32 13.063a5.906 5.906 0 100-11.811 5.906 5.906 0 000 11.811zm24.843 24.843a5.906 5.906 0 100-11.812 5.906 5.906 0 000 11.812zM32 62.748a5.906 5.906 0 100-11.811 5.906 5.906 0 000 11.811zM7.157 37.906a5.906 5.906 0 100-11.812 5.906 5.906 0 000 11.812zm.596-15.091a25.451 25.451 0 0111.598-13.22l-1.253-.011a.559.559 0 01-.554-.565.554.554 0 01.564-.553l3 .03a.792.792 0 01.674 1.19l-1.526 2.585a.557.557 0 01-1.023-.146.557.557 0 01.06-.423l.585-.992c-5.028 2.758-8.924 7.174-10.99 12.54a.609.609 0 01-1.135-.435zM42.707 8.31a25.45 25.45 0 0112.484 12.385l.089-1.25a.56.56 0 01.597-.518.553.553 0 01.518.598l-.213 2.992a.793.793 0 01-.442.655.793.793 0 01-.788-.055l-2.486-1.681a.558.558 0 11.626-.927l.954.645c-2.444-5.187-6.614-9.347-11.844-11.738a.609.609 0 01.505-1.106zm12.962 34.507a25.451 25.451 0 01-12.47 12.399l1.249.097a.56.56 0 01.514.601.553.553 0 01-.6.514l-2.991-.233a.791.791 0 01-.592-1.234l1.698-2.475a.557.557 0 011.01.215.555.555 0 01-.089.418l-.651.95c5.205-2.41 9.392-6.55 11.819-11.764a.608.608 0 011.102.512zm-33.916 13.03A25.45 25.45 0 019.084 43.651l-.07 1.251a.558.558 0 01-.59.528.553.553 0 01-.527-.59l.168-2.995a.792.792 0 011.222-.618l2.511 1.643a.559.559 0 11-.612.936l-.963-.63c2.522 5.15 6.753 9.246 12.018 11.559a.608.608 0 11-.488 1.112zm10.244-35.25c-6.283 0-11.402 5.12-11.402 11.402 0 6.282 5.119 11.402 11.402 11.402 6.292 0 11.401-5.12 11.401-11.402 0-6.283-5.109-11.402-11.402-11.402zm4.577 15.29c-.206 1.525-1.188 2.421-2.604 2.87-.339.108-.703.157-1.102.254v1.768H31.39v-1.756c-2.943-.642-4.215-1.999-3.985-4.251h2.568c.012.157.037.315.06.46.11.969.752 1.598 1.72 1.67.181.013.364.013.557.013.8-.037 1.332-.4 1.538-1.066.242-.763.037-1.598-.593-2.01-.497-.315-1.066-.521-1.587-.787-.823-.412-1.707-.727-2.447-1.248-2.143-1.538-1.828-4.94.534-6.128.533-.266 1.138-.387 1.792-.605v-1.853h1.466v1.95c1.284.23 2.373.726 3.052 1.877.363.617.556 1.514.484 2.228h-2.591c-.061-.339-.097-.666-.194-.969-.242-.738-.836-1.102-1.66-1.09-.811.012-1.271.315-1.489.97-.266.799-.097 1.622.521 2.022.533.351 1.127.593 1.695.872.727.363 1.49.642 2.18 1.065 1.393.861 1.768 2.218 1.563 3.743z" fill="#F2B145"/></svg>