<svg width="48" height="48" fill="none" xmlns="http://www.w3.org/2000/svg"><path d="M24 48c13.255 0 24-10.745 24-24S37.255 0 24 0 0 10.745 0 24s10.745 24 24 24z" fill="#FAAD17"/><path d="M38.743 24.318H9.257a.335.335 0 01-.343-.343c0-.196.147-.342.343-.342h29.486c.196 0 .343.146.343.342a.335.335 0 01-.343.343z" fill="#fff"/><path d="M16.237 37.592a.454.454 0 01-.172-.05.329.329 0 01-.122-.465l15.502-26.522a.329.329 0 01.465-.123.33.33 0 01.122.466l-15.5 26.522c-.074.098-.172.172-.294.172z" fill="#fff"/><path d="M31.739 37.592a.32.32 0 01-.294-.172L15.943 10.898a.329.329 0 01.122-.466.334.334 0 01.465.123l15.502 26.522a.329.329 0 01-.122.466c-.049.024-.098.049-.171.049z" fill="#fff"/><path d="M34.04 23.976c0 5.559-4.505 10.065-10.064 10.065-5.56 0-10.066-4.506-10.066-10.065 0-5.56 4.506-10.066 10.066-10.066 5.559 0 10.065 4.53 10.065 10.066z" fill="#fff"/><path d="M24 34.384c-5.73 0-10.384-4.654-10.384-10.384S18.27 13.616 24 13.616 34.384 18.269 34.384 24c0 5.706-4.654 10.384-10.384 10.384zm0-20.107c-5.363 0-9.723 4.36-9.723 9.723s4.36 9.722 9.723 9.722 9.722-4.359 9.722-9.722c0-5.363-4.359-9.723-9.722-9.723z" fill="#fff"/><path d="M24 30.686l-4.702-6.71L24 17.265l4.702 6.71L24 30.685zm18.098-3.013a3.67 3.67 0 01-2.596-1.077A3.67 3.67 0 0138.424 24c0-.98.392-1.91 1.078-2.596a3.67 3.67 0 012.596-1.078c.98 0 1.91.392 2.596 1.078A3.67 3.67 0 0145.77 24c0 .98-.392 1.91-1.077 2.596a3.67 3.67 0 01-2.596 1.077zm0-6.71a3 3 0 00-2.13.882 3 3 0 00-.882 2.13 3 3 0 00.881 2.131 3 3 0 002.13.882 3 3 0 002.131-.882 3 3 0 00.882-2.13 3 3 0 00-.882-2.131 3 3 0 00-2.13-.882zm-36.196 6.71a3.67 3.67 0 01-2.596-1.077 3.67 3.67 0 012.596-6.27c.98 0 1.91.392 2.596 1.078a3.67 3.67 0 01-2.596 6.27zm0-6.71a3 3 0 00-2.13.882 3 3 0 00-.882 2.13 3 3 0 00.881 2.131 3 3 0 002.131.882 3 3 0 002.13-.882 3.001 3.001 0 00.882-2.13 3 3 0 00-.881-2.131 3.001 3.001 0 00-2.131-.882zm27.551 22.874a3.71 3.71 0 01-3.698-3.698 3.71 3.71 0 013.698-3.698 3.71 3.71 0 013.698 3.698c-.025 2.032-1.665 3.698-3.698 3.698zm0-6.71a3.01 3.01 0 00-3.012 3.012 3.01 3.01 0 003.012 3.012 3.01 3.01 0 003.012-3.012 3.026 3.026 0 00-3.012-3.013zM14.547 11.535a3.71 3.71 0 01-3.698-3.698 3.71 3.71 0 013.698-3.698 3.71 3.71 0 013.698 3.698 3.71 3.71 0 01-3.698 3.698zm0-6.71a3.01 3.01 0 00-3.012 3.012 3.01 3.01 0 003.012 3.012 3.01 3.01 0 003.012-3.012 3.01 3.01 0 00-3.012-3.013zm18.906 6.71a3.71 3.71 0 01-3.698-3.698 3.71 3.71 0 013.698-3.698 3.71 3.71 0 013.698 3.698 3.71 3.71 0 01-3.698 3.698zm0-6.71a3.01 3.01 0 00-3.012 3.012 3.01 3.01 0 003.012 3.012 3.01 3.01 0 003.012-3.012 3.026 3.026 0 00-3.012-3.013zM14.547 43.837a3.71 3.71 0 01-3.698-3.698 3.71 3.71 0 013.698-3.698 3.71 3.71 0 013.698 3.698 3.71 3.71 0 01-3.698 3.698zm0-6.71a3.01 3.01 0 00-3.012 3.012 3.01 3.01 0 003.012 3.012 3.01 3.01 0 003.012-3.012 3.01 3.01 0 00-3.012-3.013z" fill="#fff"/><path d="M30.098 40.481H17.902a.335.335 0 01-.343-.343 3.01 3.01 0 00-3.012-3.012c-.49 0-.955.123-1.42.368a.29.29 0 01-.245.024.327.327 0 01-.196-.171l-5.51-10.262a.29.29 0 01-.025-.245.327.327 0 01.171-.195c.294-.172.515-.319.71-.515A3.001 3.001 0 008.915 24c0-.808-.318-1.568-.881-2.13-.196-.197-.417-.344-.71-.515a.436.436 0 01-.172-.196.29.29 0 01.024-.245l5.51-10.261a.435.435 0 01.197-.172c.098-.024.171-.024.245.025.465.245.93.367 1.42.367a3.01 3.01 0 003.012-3.012c0-.196.147-.343.343-.343h12.196c.196 0 .343.147.343.343a3.01 3.01 0 003.012 3.012c.49 0 .955-.122 1.42-.367a.29.29 0 01.245-.025.327.327 0 01.196.172l5.51 10.261a.29.29 0 01.025.245.327.327 0 01-.171.196c-.294.171-.515.318-.71.514a3 3 0 00-.882 2.13 3 3 0 00.881 2.131c.196.196.417.343.71.515a.435.435 0 01.172.195.29.29 0 01-.025.245l-5.51 10.262a.435.435 0 01-.196.171c-.098.025-.171.025-.245-.024a2.994 2.994 0 00-1.42-.368 3.01 3.01 0 00-3.012 3.013c-.025.195-.172.342-.343.342zm-11.878-.685h11.56a3.698 3.698 0 013.673-3.355c.49 0 .98.097 1.445.293l5.192-9.698a3.772 3.772 0 01-.588-.465 3.67 3.67 0 01-1.078-2.596c0-.98.392-1.91 1.078-2.596.171-.171.367-.318.588-.465l-5.217-9.698a3.69 3.69 0 01-1.42.294 3.698 3.698 0 01-3.674-3.355H18.22a3.698 3.698 0 01-3.673 3.355c-.49 0-.98-.098-1.445-.294L7.91 20.914c.22.147.416.294.588.465a3.67 3.67 0 010 5.192 3.777 3.777 0 01-.588.465l5.192 9.698a3.69 3.69 0 011.42-.294c1.935 0 3.527 1.494 3.698 3.356zm2.082 2.62h-.661a.335.335 0 01-.343-.343c0-.196.147-.343.343-.343h.66c.197 0 .344.147.344.343a.335.335 0 01-.343.343zm8.058 0h-6.711a.335.335 0 01-.343-.343c0-.196.147-.343.343-.343h6.71c.196 0 .343.147.343.343-.025.196-.172.343-.343.343zm0-36.245h-.662a.335.335 0 01-.343-.343c0-.195.147-.342.343-.342h.661c.196 0 .343.147.343.342-.024.172-.171.343-.343.343zm-2.01 0h-6.71a.335.335 0 01-.342-.343c0-.195.147-.342.343-.342h6.71c.196 0 .343.147.343.342-.025.172-.172.343-.343.343z" fill="#fff"/><path d="M24.98 19.224L22.922 20.4l-2.081 1.2v-4.776l2.081 1.2 2.058 1.2zm4.138 2.376l-2.057 1.2L24.98 24v-4.8l2.081 1.2 2.057 1.2z" fill="#FAAD17"/><path d="M24.98 19.2V24l-2.058-1.2-2.081-1.2 2.081-1.2 2.058-1.2z" fill="#FAAD17"/><path d="M24.98 28.776l-2.082 1.175-2.057 1.2v-4.776l2.057 1.2 2.082 1.2zm4.138-2.4l-2.081 1.2-2.057 1.175v-4.775l2.081 1.2 2.057 1.2z" fill="#1ABDC1"/><path d="M24.98 24v4.775l-2.082-1.2-2.057-1.2 2.081-1.2L24.98 24zm4.138-2.4v4.776l-2.081-1.2-2.057-1.2 2.08-1.176 2.057-1.2z" fill="#1ABDC1"/></svg>