<svg width="64" height="64" fill="none" xmlns="http://www.w3.org/2000/svg"><path d="M27.6 1.2C14.2 1.2 3.2 12.1 3.2 25.5s10.9 24.3 24.3 24.3c4.4 0 8.8-1.2 12.6-3.5l.4-.2.6.8c2.3 3 4.7 6 7 9l.5.6c1.3 1.7 2.6 3.3 3.9 5 .7.9 1.5 1.3 2.7 1.4h.2c.7 0 1.4-.3 2-.8.5-.4 1-.8 1.5-1.3l.5-.4c.8-.7 1.2-1.6 1.3-2.5 0-.9-.4-1.9-1.1-2.7-1.8-1.9-3.7-3.8-5.6-5.7l-3.1-3.1-1.6-1.6-.7-.7-1.9-1.9-.7-.7.3-.3c3.6-4.3 5.6-9.8 5.6-15.5C51.9 12.1 41 1.2 27.6 1.2zm0 43.9C16.8 45.1 8 36.3 8 25.5S16.8 5.9 27.6 5.9s19.6 8.8 19.6 19.6-8.8 19.6-19.6 19.6z" fill="#F2B145"/><path d="M22.3 26.5v8.3c0 .7-.3 1-1 1h-4.6c-.6 0-1-.3-1-1V24.6c0-.6.3-1 1-1h4.6c.6 0 1 .4 1 1v1.9zm-1.7-1.2h-3.3v8.9h3.3v-8.9zM40 31.8V20.2c0-.6-.3-1-1-1h-4.6c-.2 0-.4 0-.6.1-.2.2-.4.4-.4.7v14.7c0 .7.3 1 1 1H39c.7 0 1-.3 1-1v-2.9zm-8.8-16.3v-2.1l-6.5 5.8v2.1l6.5-5.8zm0 13.6l-6.5 5.8c0 .6.3.9 1 .9h.4l5.1-4.6v-2.1zm0-11.8l-6.5 5.8v2.1l6.5-5.8v-2.1zm-6.6.1l6.5-5.7c-.1-.3-.4-.6-.8-.6h-1l-4.8 4.2c.1.6.1 1.3.1 2.1zm6.6 6v-2.1l-6.5 5.8v2.1l6.5-5.8zm-3.9-12.3h-1.9c-.4 0-.7.2-.8.6v1.8l2.7-2.4zm.8 24.7h2.1c.7 0 1-.3 1-1v-1.7l-3.1 2.7zm3.1-8.5v-2.1L24.6 31v2.1l6.6-5.8z" fill="#F2B145"/></svg>