<svg width="64" height="64" fill="none" xmlns="http://www.w3.org/2000/svg"><path d="M44.606 54.903c-2.133-1.236-6.997-3.963-6.998-3.965a1.464 1.464 0 00-1.963.512l-.089.144c-.415.675-.184 1.613.484 2.018.327.2 1.76 1.118 2.7 1.722l-2.431.663c-5.542 1.513-14.572.082-21.11-5.578a23.254 23.254 0 01-1.867-1.808l-.199-.218c-3.445-3.818-5.564-8.272-6.298-13.237-.903-6.118.274-11.87 3.499-17.098.123-.2.25-.4.38-.6.375-.575.306-1.316-.17-1.844a1.693 1.693 0 00-.16-.154 1.522 1.522 0 00-1.158-.31 1.5 1.5 0 00-1.022.633c-.247.359-.485.726-.715 1.098-4.53 7.344-5.37 16.384-2.251 24.184 1.512 3.78 3.488 7.038 5.874 9.682.714.792 1.477 1.54 2.295 2.246 7.924 5.724 13.857 7.512 21.893 6.601 1.254-.142 2.48-.462 3.668-.776l-1.412 1.551c-.523.582-.506 1.476.038 2.078.033.038.069.073.118.119.613.53 1.534.474 2.1-.131l5.097-5.512c.556-.6.413-1.61-.303-2.02zM19.077 8.842c.091.1.197.187.316.256a857.72 857.72 0 006.999 3.963c.687.383 1.55.158 1.963-.512l.089-.144c.415-.674.184-1.612-.484-2.018-.327-.2-1.76-1.118-2.699-1.722l2.431-.663c5.541-1.512 14.572-.082 21.11 5.579.658.57 1.286 1.178 1.866 1.808l.202.22c3.443 3.816 5.561 8.27 6.296 13.234.903 6.116-.274 11.869-3.499 17.098-.124.199-.251.4-.382.6-.373.576-.304 1.316.172 1.844.045.05.094.099.158.154.318.258.74.371 1.158.311.414-.059.787-.29 1.023-.633.247-.36.485-.727.715-1.1 4.53-7.342 5.37-16.383 2.251-24.182-1.512-3.781-3.488-7.038-5.873-9.681a25.675 25.675 0 00-2.297-2.247C42.67 5.283 36.737 3.494 28.7 4.406c-1.254.142-2.481.463-3.668.776l1.412-1.55c.524-.582.507-1.476-.038-2.08a1.736 1.736 0 00-.118-.119 1.513 1.513 0 00-2.1.132l-5.096 5.511a1.303 1.303 0 00-.015 1.766z" fill="#F2B145"/><path d="M43.902 31.121c-.032-.791-.102-1.506-.081-2.217.062-2.185 1.535-3.827 3.816-4.24 1.053-.191 2.117-.167 3.155.15.572.174.654.326.53.901-.073.337-.13.676-.199 1.014-.116.572-.326.677-.905.607-.58-.071-1.179-.133-1.756-.07-.903.099-1.518.804-1.539 1.72-.015.6.073 1.202.12 1.803.019.253.16.34.416.335.69-.014 1.381-.006 2.072-.002.514.004.69.184.695.698l.005.746c.001.64-.188.823-.845.822-.553 0-1.105-.014-1.657.012-.112.005-.31.16-.311.25-.017 1.147-.406 2.128-1.24 2.925-.017.016-.019.05-.051.143.166.015.317.04.468.04 1.616.002 3.232 0 4.848 0 .526 0 .69.158.698.685.007.47.005.94 0 1.409-.005.433-.174.605-.602.605-2.306.002-4.613.001-6.919 0-.704 0-1.408-.002-2.112-.01-.445-.006-.58-.15-.594-.603 0-.041.005-.084-.002-.123-.11-.66.138-1.066.726-1.443 1.24-.797 1.92-1.949 1.775-3.495-.028-.299-.12-.415-.424-.399-.4.02-.801.01-1.201.001-.435-.01-.624-.201-.633-.637-.007-.345-.007-.69 0-1.036.01-.397.181-.575.587-.588.396-.014.79-.003 1.16-.003zm-23.146 4.64c-.197 1.479-1.144 2.346-2.522 2.78-.33.105-.676.155-1.063.243v1.713h-1.428v-1.698c-2.847-.62-4.084-1.939-3.865-4.112h2.486c.02.151.044.3.061.447.105.932.73 1.544 1.661 1.614.181.015.363.015.545.007.776-.026 1.291-.382 1.49-1.022.234-.747.032-1.551-.58-1.948-.476-.31-1.023-.51-1.532-.766-.793-.395-1.652-.702-2.364-1.21-2.077-1.49-1.78-4.777.511-5.927.517-.258 1.105-.382 1.742-.595v-1.784h1.419v1.88c1.235.228 2.293.712 2.948 1.824.354.6.543 1.462.468 2.157H18.23c-.064-.326-.093-.642-.193-.938-.236-.713-.805-1.07-1.61-1.058-.778.013-1.227.305-1.437.94-.255.77-.088 1.574.507 1.961.511.335 1.09.57 1.643.84.703.345 1.442.626 2.104 1.034 1.347.83 1.71 2.141 1.512 3.618zm16.934 2.597l-.02-.074-.317-1.226v-.007a5.645 5.645 0 00-.049-.228c-1.382.588-2.776.869-4.222.402-1.488-.48-2.486-1.77-2.54-3.31h6.027v-1.382h-6.282v-1.065h6.282v-1.383H30.54c.055-1.54 1.052-2.828 2.54-3.309 1.446-.467 2.841-.186 4.223.402a5.83 5.83 0 00.048-.228l.001-.007.316-1.226.02-.074.001-.009.16-.62s-1.548-.505-2.062-.596h-.006c-3.492-.733-7.26.981-8.13 5.19-.027.133-.062.266-.104.451h-1.4v1.374l1.216.064.024.504c-.007.169-.016.335-.024.505-.426.021-.8.042-1.216.064v1.373h1.4c.043.186.077.318.104.452.87 4.208 4.638 5.922 8.13 5.19h.006c.514-.091 2.062-.597 2.062-.597l-.16-.62v-.01z" fill="#F2B145"/></svg>