<svg width="132" height="40" fill="none" xmlns="http://www.w3.org/2000/svg"><path fill-rule="evenodd" clip-rule="evenodd" d="M35.594 23.957c2.614 0 4.14-1.882 4.14-4.12 0-2.336-1.427-4.14-4.14-4.14h-2.397v8.26h2.397zm-5.21-10.735h5.21c4.14 0 7.012 2.634 7.012 6.616 0 3.98-2.873 6.596-7.012 6.596h-5.21V13.222zm14.997 0h9.35v2.416h-6.537v2.872h6.398v2.417h-6.398v3.07h6.537v2.437h-9.35V13.222zm12.855 0h2.813v10.735h5.585v2.477h-8.398V13.222zm9.966 6.616c0-4.062 3.07-6.834 6.934-6.834 3.01 0 4.695 1.584 5.625 3.229l-2.416 1.188a3.615 3.615 0 00-3.209-1.921c-2.298 0-4.041 1.842-4.041 4.338s1.743 4.338 4.041 4.338c1.466 0 2.655-.833 3.209-1.922l2.416 1.169c-.95 1.644-2.615 3.249-5.625 3.249-3.863 0-6.934-2.774-6.934-6.834zm24.283 1.049h-6.24v5.547h-2.812V13.222h2.813v5.19h6.24v-5.19h2.832v13.212h-2.833v-5.547zm9.683.833h4.378l-2.18-6.062-2.198 6.062zm5.15 2.436h-5.903l-.832 2.278h-3.09l5.111-13.213h3.526l5.091 13.213h-3.07l-.833-2.278z" fill="#FEFEFE"/><mask id="a" maskUnits="userSpaceOnUse" x="0" y="0" width="132" height="40"><path d="M0 39.656h131.678V0H0v39.656z" fill="#fff"/></mask><g mask="url(#a)"><path fill-rule="evenodd" clip-rule="evenodd" d="M113.436 26.434h2.813V13.222h-2.813v13.212zm9.23-8.874v8.874h-2.813V13.22h2.891l6.121 8.558V13.22h2.813v13.213h-2.713l-6.299-8.873zM0 0v13.219l9.387 5.42 11.448-6.61L0 0zm0 26.437v13.219l22.895-13.219V13.22L0 26.437z" fill="#FEFEFE"/></g></svg>