<svg width="61" height="59" fill="none" xmlns="http://www.w3.org/2000/svg"><path d="M40.98 56.754v.05c0 .652-.552 1.204-1.205 1.204H18.097a1.221 1.221 0 01-1.204-1.204v-.15c0-.452.301-.854.753-1.004.602-.15 1.154-.402 1.706-.653.602-.3 1.254-.652 1.857-1.154.852-.652 1.505-1.505 1.505-2.509v-2.107H4.649c-3.161 0-4.516-1.355-4.516-4.567V10.437c0-3.211 1.355-4.616 4.667-4.616h21.226c-1.154 1.555-2.058 3.261-2.76 5.118H6.456c-1.907 0-1.907 0-1.907 1.807v26.796c0 1.555.05 1.606 1.605 1.606h40.747l2.86 8.079H35.158v2.107c0 1.004.653 1.857 1.506 2.51.602.45 1.254.852 1.857 1.153.501.251 1.053.452 1.605.653.502.1.853.552.853 1.104z" fill="#3BBBC2"/><path d="M29.087 32.818L24.77 36.23l-1.706 1.255-1.254-1.406-6.223-7.627-7.878 1.405L7.258 28l8.732-2.007.752-.2.703.602 5.871 5.168 2.459-2.258c1.003 1.305 2.057 2.459 3.312 3.513zm18.014-18.165l-2.86 9.684c-.05.15-.25.1-.3-.05l-.653-2.66-7.176 5.62a10.974 10.974 0 01-3.814-3.913l7.377-6.674-2.86-1.456c-.151-.1-.151-.3 0-.3l10.086-.452c.1-.05.2.1.2.2z" fill="#3BBBC2"/><path d="M57.238 9.434C52.67 1.004 42.033-2.158 33.603 2.409c-8.43 4.616-11.592 15.204-6.975 23.634 4.064 7.427 12.746 10.79 20.574 8.33l3.161 9.334c.15.401.351.803.602 1.154 1.656 2.258 4.818 2.76 7.076 1.154 2.258-1.656 2.76-4.817 1.154-7.075l-6.172-7.778c6.322-5.169 8.28-14.302 4.215-21.728zM50.714 28.05a13.012 13.012 0 01-2.358 1.605c-.853.452-1.756.803-2.66 1.104-5.971 1.757-12.645-.803-15.756-6.523-3.463-6.624-1.054-14.853 5.52-18.416 6.573-3.563 14.803-1.104 18.366 5.42 3.11 5.77 1.655 12.745-3.112 16.81z" fill="#3BBBC2"/></svg>