<svg width="64" height="64" fill="none" xmlns="http://www.w3.org/2000/svg"><path d="M33 43h-2c-3.3 0-6-2.7-6-6h2c0 2.2 1.8 4 4 4h2c2.2 0 4-1.8 4-4s-1.8-4-4-4h-2c-3.3 0-6-2.7-6-6s2.7-6 6-6h2c3.3 0 6 2.7 6 6h-2c0-2.2-1.8-4-4-4h-2c-2.2 0-4 1.8-4 4s1.8 4 4 4h2c3.3 0 6 2.7 6 6s-2.7 6-6 6z" fill="#3BBBC2"/><path d="M33 19h-2v26h2V19zM62 2h-8v18h8V2zM10 44H2v18h8V44zm36.4-26.4c-1.3 0-2.7-.4-4.2-1.1-.8-.4-1.7-.6-2.6-.6l-6 .1c-.9-.1-1.6-.9-1.6-1.7 0-.8.6-1.5 1.4-1.7l6.6-1.7-5-2-14.5 2.8h-.2c-.8 0-1.5-.5-1.8-1.2-.3-.9.1-1.9 1-2.3l13.4-5.9c.5-.2 1.1-.3 1.6-.3.2 0 .4 0 .7.1L52 4.9v10c-.8.7-2.2 1.8-3 2.2-.8.3-1.7.5-2.6.5zM18.1 46c1.3 0 2.7.4 4.2 1.1.8.4 1.7.6 2.6.6l6-.1c.9.1 1.6.9 1.6 1.7 0 .8-.6 1.5-1.4 1.7l-6.6 1.7 5 2L44 51.9h.2c.8 0 1.5.5 1.8 1.2.3.9-.1 1.9-1 2.3l-13.4 5.9c-.5.2-1 .3-1.6.3-.2 0-.7 0-.9-.1l-17-2.8v-10c1-.7 2.4-1.8 3.2-2.2.7-.3 1.8-.5 2.8-.5z" fill="#3BBBC2"/></svg>