<svg width="16" height="16" fill="none" xmlns="http://www.w3.org/2000/svg"><path d="M1.425 8.853h13.15c.438 0 .863-.387.84-.84-.021-.454-.368-.841-.84-.841H1.425c-.438 0-.863.387-.84.84.021.454.368.841.84.841z" fill="#fff"/><path d="M13.912 7.5l-4.515 4.516-.64.64a.857.857 0 000 1.188.857.857 0 001.187 0l4.515-4.516.641-.64a.857.857 0 000-1.188.845.845 0 00-1.188 0z" fill="#fff"/><path d="M15.075 7.31l-4.516-4.516-.64-.64a.857.857 0 00-1.188 0 .857.857 0 000 1.187l4.516 4.515.64.64a.857.857 0 001.188 0 .845.845 0 000-1.187z" fill="#fff"/></svg>