<svg width="260" height="221" fill="none" xmlns="http://www.w3.org/2000/svg"><g opacity=".5"><path opacity=".5" d="M135.212 218.897c5.669 0 11.337-1.127 15.911-3.381-5.449-.628-10.881-2.456-15.705-5.135-4.858 2.742-10.367 4.604-15.893 5.243 4.534 2.182 10.111 3.273 15.687 3.273z" fill="#fff"/><path opacity=".5" d="M151.123 215.515c.492-.243.973-.498 1.438-.767-5.412-.67-10.804-2.552-15.635-5.26a39.32 39.32 0 01-1.508.892c4.823 2.68 10.256 4.508 15.705 5.135z" fill="#fff"/><path opacity=".5" d="M152.561 214.748c-5.412-.67-10.804-2.552-15.635-5.26a3148.71 3148.71 0 0013.292-8.269c5.009 2.851 10.159 5.079 15.367 6.009l-13.024 7.52z" fill="#fff"/><path opacity=".5" d="M165.585 207.229c-5.208-.931-10.358-3.159-15.367-6.01 4.42-2.763 8.833-5.53 13.246-8.298 5.185 2.993 10.14 5.597 15.145 6.788l-13.024 7.52zm-46.06 8.395c5.526-.639 11.035-2.501 15.893-5.243a43.225 43.225 0 01-1.743-1.021c-4.868 2.774-10.331 4.698-15.812 5.388.536.309 1.091.602 1.662.876z" fill="#fff"/><path opacity=".5" d="M135.418 210.381a40.682 40.682 0 001.508-.893 45.278 45.278 0 01-1.743-1.026c-.494.307-.997.607-1.508.898.569.352 1.151.692 1.743 1.021z" fill="#F1F8FF"/><path opacity=".5" d="M136.926 209.488a45.278 45.278 0 01-1.743-1.026 2898.61 2898.61 0 0013.254-8.281c.589.352 1.182.697 1.781 1.038a3148.71 3148.71 0 01-13.292 8.269z" fill="#EFF7FF"/><path opacity=".5" d="M150.218 201.219a97.427 97.427 0 01-1.781-1.038c4.406-2.767 8.803-5.541 13.202-8.314l1.825 1.054c-4.413 2.768-8.826 5.535-13.246 8.298z" fill="#E3F0FF"/><path opacity=".5" d="M117.863 214.748c5.481-.69 10.944-2.614 15.812-5.388l-13.358-8.22c-5.026 2.884-10.235 5.148-15.478 6.088l13.024 7.52z" fill="#fff"/><path opacity=".5" d="M104.839 207.229c5.243-.941 10.452-3.205 15.478-6.089l-13.357-8.219c-5.185 2.993-10.14 5.597-15.145 6.788l13.024 7.52z" fill="#fff"/><path opacity=".5" d="M133.675 209.36a45.752 45.752 0 001.508-.898l-13.326-8.225c-.509.305-1.022.606-1.54.903l13.358 8.22z" fill="#EFF7FF"/><path opacity=".5" d="M120.317 201.14a92.754 92.754 0 001.54-.903c-4.442-2.743-8.885-5.484-13.327-8.225l-1.57.909 13.357 8.219z" fill="#E2F0FF"/><path opacity=".5" d="M135.183 208.462a2898.61 2898.61 0 0013.254-8.281c-4.462-2.665-8.914-5.324-13.366-7.981-4.382 2.692-8.78 5.374-13.214 8.037l13.326 8.225z" fill="#EDF6FF"/><path opacity=".5" d="M121.857 200.237c4.434-2.663 8.832-5.345 13.214-8.037l-13.366-7.982a1050.78 1050.78 0 01-13.175 7.794l13.327 8.225zm26.58-.056c4.406-2.767 8.803-5.541 13.202-8.314l-13.45-7.765c-4.369 2.703-8.735 5.405-13.118 8.098 4.452 2.657 8.904 5.316 13.366 7.981z" fill="#E0EFFF"/><path opacity=".5" d="M135.071 192.2c4.383-2.693 8.749-5.395 13.118-8.098l-13.449-7.766c-4.341 2.633-8.676 5.265-13.035 7.882l13.366 7.982z" fill="#CEE5FF"/><path opacity=".5" d="M178.609 199.709l40.031-23.113c-3.107-3.272-7.171-6.324-11.709-9.231-14.478 8.525-29.096 16.971-43.467 25.556 5.185 2.993 10.14 5.597 15.145 6.788z" fill="#fff"/><path opacity=".5" d="M163.465 192.921c14.371-8.585 28.988-17.031 43.466-25.556-4.498-2.881-9.462-5.618-14.42-8.281-14.453 8.453-29.168 16.972-43.409 25.544l14.363 8.293z" fill="#DDEDFF"/><path opacity=".5" d="M149.102 184.628c14.241-8.572 28.956-17.091 43.409-25.544-4.959-2.663-9.912-5.252-14.388-7.837-14.428 8.382-29.272 16.529-43.383 25.089l14.362 8.292z" fill="#C9E3FF"/><path opacity=".5" d="M218.64 176.596c-2.871-3.023-6.56-5.86-10.684-8.567 4.547-2.719 9.277-5.442 14.013-8.191 4.421 2.81 7.748 5.926 9.695 9.238l-13.024 7.52z" fill="#fff"/><path opacity=".5" d="M231.664 169.076c-1.947-3.312-5.274-6.428-9.695-9.238 4.736-2.748 9.478-5.522 14.052-8.341 4.716 2.912 7.645 6.457 8.667 10.06l-13.024 7.519z" fill="#fff"/><path opacity=".5" d="M244.688 161.557c4.791-2.766 7.186-6.392 7.186-10.017 0-3.625-2.395-7.251-7.186-10.016-1.014 3.569-3.946 7.086-8.667 9.973 4.716 2.912 7.645 6.457 8.667 10.06z" fill="#fff"/><path opacity=".5" d="M207.956 168.029c4.547-2.719 9.277-5.442 14.013-8.191-4.581-2.931-9.526-5.714-14.48-8.443-4.938 2.689-9.863 5.325-14.409 7.994 5.148 2.771 10.282 5.625 14.876 8.64z" fill="#DFEEFF"/><path opacity=".5" d="M193.08 159.389c4.546-2.669 9.471-5.305 14.409-7.994-4.954-2.729-9.917-5.404-14.532-8.118-5.155 2.716-10.29 5.35-14.834 7.97 4.647 2.683 9.809 5.372 14.957 8.142z" fill="#C9E3FF"/><path opacity=".5" d="M221.969 159.839c4.736-2.749 9.478-5.523 14.052-8.342-4.568-2.846-9.302-5.644-14.041-8.415-4.6 2.882-9.552 5.624-14.491 8.313 4.954 2.729 9.899 5.512 14.48 8.444z" fill="#E6F2FF"/><path opacity=".5" d="M207.489 151.395c4.939-2.689 9.891-5.431 14.491-8.313-4.739-2.771-9.482-5.516-14.066-8.261-4.627 2.945-9.803 5.741-14.957 8.456 4.615 2.714 9.578 5.389 14.532 8.118z" fill="#D1E7FF"/><path opacity=".5" d="M236.02 151.497c4.722-2.887 7.654-6.404 8.668-9.973l-13.024-7.52c-1.937 3.25-5.246 6.313-9.684 9.078 4.739 2.771 9.473 5.568 14.04 8.415z" fill="#F4F9FF"/><path opacity=".5" d="M221.98 143.082c4.438-2.765 7.747-5.828 9.684-9.078l-13.024-7.52c-2.859 2.931-6.571 5.694-10.726 8.337 4.584 2.745 9.327 5.49 14.066 8.261z" fill="#E6F2FF"/><path opacity=".5" d="M91.815 199.709c5.005-1.192 9.96-3.795 15.145-6.788l-42.91-25.436c-4.623 2.858-8.851 5.861-12.266 9.111l40.031 23.113z" fill="#fff"/><path opacity=".5" d="M106.96 192.921l-42.91-25.436c4.47-2.763 9.308-5.39 14.137-7.972 14.231 8.326 28.516 16.841 42.747 25.168a993.751 993.751 0 01-13.974 8.24z" fill="#DDEDFF"/><path opacity=".5" d="M120.934 184.681c-14.231-8.327-28.516-16.842-42.747-25.168 4.83-2.582 9.648-5.118 14.079-7.7l42.474 24.523c-4.597 2.789-9.187 5.575-13.806 8.345z" fill="#C9E2FF"/><path opacity=".5" d="M134.74 176.336c14.111-8.56 28.955-16.707 43.383-25.089l-42.403-24.482c-14.519 8.329-28.986 16.689-43.454 25.048l42.474 24.523z" fill="#C2DFFF"/><path opacity=".5" d="M178.123 151.247l-42.403-24.482c3.235-1.94 6.485-4.05 9.803-6.205 14.011 8.089 29.178 16.855 43.189 24.945-3.695 1.939-7.297 3.844-10.589 5.742z" fill="#C2DFFF"/><path opacity=".5" d="M188.712 145.505c-14.011-8.09-29.178-16.856-43.189-24.945 3.318-2.155 6.703-4.355 10.208-6.472l44.129 25.477c-3.665 2.03-7.453 4.001-11.148 5.94z" fill="#C6E1FF"/><path opacity=".5" d="M199.86 139.565l-44.129-25.477c3.505-2.118 7.129-4.154 10.924-5.981 13.468 7.775 30.146 17.394 43.614 25.169-3.202 2.171-6.744 4.26-10.409 6.289z" fill="#D1E7FF"/><path opacity=".5" d="M210.269 133.276c-13.468-7.775-30.146-17.394-43.614-25.169 3.796-1.829 7.763-3.449 11.954-4.735l40.031 23.112c-2.307 2.365-5.169 4.621-8.371 6.792z" fill="#E4F1FF"/><path opacity=".5" d="M51.784 176.596c3.105-2.954 6.88-5.705 11.014-8.328l-13.984-8.312c-4.48 2.742-7.9 5.865-10.054 9.12l13.024 7.52z" fill="#fff"/><path opacity=".5" d="M38.76 169.076c2.153-3.255 5.573-6.378 10.054-9.12l-13.985-8.313c-4.827 2.862-7.89 6.356-9.093 9.914l13.024 7.519z" fill="#fff"/><path opacity=".5" d="M62.798 168.269c4.605-2.922 9.652-5.684 14.708-8.392a4110.652 4110.652 0 00-14.164-8.246c-4.944 2.716-9.881 5.469-14.528 8.325 4.661 2.771 9.323 5.541 13.984 8.313z" fill="#DFEEFF"/><path opacity=".5" d="M48.814 159.956c4.647-2.856 9.584-5.609 14.528-8.325-4.72-2.739-9.44-5.478-14.165-8.246-4.83 2.725-9.658 5.467-14.348 8.258l13.985 8.313z" fill="#E6F2FF"/><path opacity=".5" d="M77.506 159.877c5.056-2.708 10.12-5.361 14.76-8.064l-14.363-8.292c-4.67 2.713-9.618 5.394-14.561 8.11 4.72 2.739 9.44 5.479 14.164 8.246z" fill="#C9E3FF"/><path opacity=".5" d="M63.342 151.631c4.943-2.716 9.892-5.397 14.561-8.11-4.787-2.765-9.574-5.528-14.362-8.292-4.7 2.723-9.533 5.431-14.364 8.156 4.725 2.768 9.445 5.507 14.165 8.246z" fill="#D1E7FF"/><path opacity=".5" d="M25.736 161.557c1.202-3.558 4.266-7.052 9.093-9.914-5.076-3.002-8.29-6.556-9.093-10.119-4.79 2.765-7.186 6.391-7.186 10.016s2.395 7.251 7.186 10.017z" fill="#fff"/><path opacity=".5" d="M34.829 151.643c-5.076-3.002-8.29-6.556-9.093-10.119l13.024-7.52c1.433 3.226 5.286 6.383 10.417 9.381-4.83 2.725-9.658 5.467-14.348 8.258z" fill="#F4F9FF"/><path opacity=".5" d="M49.177 143.385c-5.13-2.998-8.984-6.155-10.417-9.381l13.024-7.52c2.063 2.89 6.572 5.751 11.757 8.745-4.7 2.723-9.533 5.431-14.364 8.156z" fill="#E6F2FF"/><path opacity=".5" d="M92.266 151.813c14.468-8.359 28.935-16.719 43.454-25.048-4.651-2.685-9.311-5.667-14.113-8.641-14.448 8.444-29.289 16.934-43.704 25.397 4.788 2.764 9.575 5.527 14.362 8.292z" fill="#C2DFFF"/><path opacity=".5" d="M77.903 143.521c14.415-8.463 29.256-16.953 43.704-25.397-4.803-2.973-9.748-5.939-14.97-8.591-14.376 8.559-28.736 17.128-43.096 25.696l14.362 8.292z" fill="#C9E3FF"/><path opacity=".5" d="M63.541 135.229c14.36-8.568 28.72-17.137 43.096-25.696-4.685-2.379-9.593-4.506-14.822-6.161l-40.03 23.112c2.062 2.89 6.571 5.751 11.756 8.745z" fill="#DFEEFF"/><path opacity=".5" d="M135.72 126.765c4.027-2.415 8.078-5.095 12.254-7.795-4.215-2.549-8.377-5.273-12.611-8.01-4.161 2.753-8.236 5.492-12.344 8.041 4.306 2.68 8.507 5.343 12.701 7.764z" fill="#C2DFFF"/><path opacity=".5" d="M123.019 119.001c4.108-2.549 8.183-5.288 12.344-8.041-4.234-2.736-8.541-5.485-13.047-8.082-4.244 2.789-8.442 5.571-12.63 8.253 4.615 2.492 9.027 5.189 13.333 7.87zm24.955-.031c4.176-2.701 8.476-5.422 13.001-7.921-4.237-2.676-8.476-5.443-12.754-8.216-4.45 2.606-8.697 5.374-12.858 8.127 4.234 2.737 8.396 5.461 12.611 8.01z" fill="#C8E2FF"/><path opacity=".5" d="M135.363 110.96c4.161-2.753 8.408-5.52 12.858-8.127-4.279-2.773-8.597-5.553-12.992-8.255-4.377 2.713-8.668 5.511-12.913 8.3 4.506 2.597 8.813 5.346 13.047 8.082z" fill="#CEE5FF"/><path opacity=".5" d="M160.975 111.049c5.487-3.031 11.306-5.735 17.634-7.677l-13.024-7.52c-6.292 1.466-12.114 3.905-17.364 6.981 4.278 2.774 8.517 5.54 12.754 8.216z" fill="#DAEBFF"/><path opacity=".5" d="M148.221 102.833c5.25-3.076 11.072-5.516 17.364-6.98l-13.024-7.52c-6.256.988-12.32 3.124-17.332 6.244 4.395 2.703 8.713 5.483 12.992 8.256z" fill="#E0EFFF"/><path opacity=".5" d="M109.686 111.131c-5.599-3.022-11.497-5.741-17.87-7.759l13.023-7.52c6.315 1.512 12.16 3.962 17.477 7.026-4.244 2.79-8.442 5.572-12.63 8.253z" fill="#DAEBFF"/><path opacity=".5" d="M122.316 102.878c-5.317-3.064-11.162-5.514-17.477-7.026l13.024-7.52c6.255 1.007 12.33 3.139 17.366 6.245-4.377 2.714-8.668 5.511-12.913 8.301z" fill="#E0EFFF"/><path opacity=".5" d="M135.229 94.578c5.012-3.121 11.076-5.257 17.332-6.245-4.79-2.766-11.07-4.15-17.349-4.15s-12.558 1.384-17.349 4.15c6.255 1.006 12.33 3.138 17.366 6.245z" fill="#EDF6FF"/></g><path d="M134.937 220.78L10.853 150.227v-6.786l124.084 70.553v6.786z" fill="url(#paint0_linear)"/><path d="M134.937 220.78l124.085-70.553v-6.786l-124.085 70.553v6.786z" fill="url(#paint1_linear)"/><path d="M134.937 213.994L10.853 143.442l124.084-70.553 124.085 70.553-124.085 70.552z" fill="#fff"/><g opacity=".5"><path opacity=".5" d="M57.508 168.086l-1.026-.592 113.044-65.268 1.024.592-113.043 65.268z" fill="#fff"/><path opacity=".5" d="M58.532 168.677l-1.024-.591 113.042-65.268 1.025.591-113.043 65.268z" fill="#3C5087"/><path opacity=".5" d="M73.365 177.241l-1.025-.592 113.043-65.267 1.025.592-113.043 65.267z" fill="#fff"/><path opacity=".5" d="M74.39 177.832l-1.026-.591 113.045-65.267 1.024.591-113.044 65.267z" fill="#3C5087"/><path opacity=".5" d="M89.222 186.396l-1.025-.591 113.044-65.267 1.025.591-113.044 65.267z" fill="#fff"/><path opacity=".5" d="M90.246 186.988l-1.024-.592 113.044-65.267 1.024.592-113.043 65.267z" fill="#3C5087"/><path opacity=".5" d="M105.079 195.552l-1.024-.592 113.044-65.267 1.024.591-113.044 65.268z" fill="#fff"/><path opacity=".5" d="M106.104 196.143l-1.025-.591 113.044-65.268 1.025.592-113.044 65.267z" fill="#3C5087"/><path opacity=".5" d="M120.937 204.707l-1.025-.591 113.043-65.268 1.025.592-113.043 65.267z" fill="#fff"/><path opacity=".5" d="M121.961 205.299l-1.024-.592 113.044-65.267 1.024.592-113.044 65.267z" fill="#3C5087"/><path opacity=".5" d="M136.794 213.863l-1.025-.592 113.045-65.267 1.024.592-113.044 65.267z" fill="#fff"/><path opacity=".5" d="M137.819 214.454l-1.025-.591 113.044-65.267 1.024.591-113.043 65.267z" fill="#3C5087"/></g><path opacity=".26" d="M222.492 182.042c-7.306 14.641-52.847 6.741-101.718-17.646-48.872-24.387-82.567-56.024-75.262-70.665 7.306-14.641 52.846-6.74 101.718 17.646 48.872 24.387 82.567 56.025 75.262 70.665z" fill="url(#paint2_radial)"/><path d="M164.378 163.226L47.716 95.869V89.39l116.662 67.357v6.479z" fill="url(#paint3_linear)"/><path d="M194.148 127.736l29.166-16.839v-6.479l-29.166 16.839v6.479z" fill="url(#paint4_linear)"/><path d="M164.378 156.747L47.716 89.39l29.166-16.839 116.662 67.357-29.166 16.839z" fill="#fff"/><path d="M193.543 126.95L76.882 59.594v-6.479l116.661 67.357v6.478z" fill="url(#paint5_linear)"/><path d="M135.305 199.112l29.165-16.839v-6.479l-29.165 16.839v6.479z" fill="url(#paint6_linear)"/><path d="M193.543 120.471L76.881 53.115l29.166-16.84 116.662 67.357-29.166 16.839z" fill="#fff"/><path d="M222.709 90.675L106.047 23.319v-6.48l116.662 67.357v6.479z" fill="url(#paint7_linear)"/><path d="M222.709 90.675l29.166-16.839v-6.479l-29.166 16.84v6.478z" fill="url(#paint8_linear)"/><path d="M222.709 84.196L106.047 16.84 135.212 0l116.663 67.357-29.166 16.84z" fill="#fff"/><path d="M164.51 163.614l29.165-16.839v-6.479l-29.165 16.84v6.478z" fill="url(#paint9_linear)"/><path d="M214.947 43.186l-5.867-3.387v1.36l5.867 3.386v-1.359zm-5.867-4.746l8.211 4.74v-1.358l-8.211-4.74v1.358zm9.38 9.49v1.358l1.176.68v-1.36l-1.176-.679zm-2.345.004l1.176.68v-1.36l-1.176-.679v1.36zm-2.345-1.354l1.177.68V45.9l-1.177-.678v1.358zm-4.69-2.707l1.177.68v-1.36l-1.177-.679v1.359zm2.345 1.354l1.177.68v-1.36l-1.177-.68v1.36z" fill="#fff"/><path opacity=".26" d="M177.156 210.072c-6.268 12.365-50.842 2.37-99.558-22.324C28.88 163.054-5.531 133.011.737 120.647c6.268-12.366 50.842-2.372 99.558 22.323 48.717 24.694 83.129 54.736 76.861 67.102z" fill="url(#paint10_radial)"/><path d="M135.074 199.236L18.412 131.879V125.4l116.662 67.357v6.479z" fill="url(#paint11_linear)"/><path d="M222.708 90.745l29.167-16.839v-6.479l-29.167 16.84v6.478z" fill="url(#paint12_linear)"/><path d="M135.074 192.757L18.412 125.4l29.166-16.839 116.662 67.357-29.166 16.839z" fill="#fff"/><path d="M71.473 90.205L49.195 77.344l.001-25.724 22.277 12.86v25.724z" fill="url(#paint13_linear)"/><path d="M93.75 51.619L71.473 64.481 49.196 51.62l22.277-12.862L93.75 51.619z" fill="#fff"/><path d="M93.751 77.344l-22.278 12.86V64.482L93.751 51.62v25.724z" fill="url(#paint14_linear)"/><path d="M82.612 63.085c-3.744 2.161-6.778 7.418-6.778 11.74 0 4.324 3.034 6.075 6.778 3.915 3.744-2.161 6.779-7.418 6.779-11.742 0-3.065-1.528-4.839-3.752-4.839-.91 0-1.94.298-3.027.926z" fill="url(#paint15_linear)"/><path opacity=".5" d="M85.704 51.62l-14.23 8.216-14.232-8.217 14.231-8.217 14.231 8.217zm-30.637 0l16.406 9.472 16.406-9.473v-.648l-16.406-8.824-16.406 8.824v.648z" fill="#fff"/><path d="M85.704 50.971l-14.23 8.217-14.232-8.217 14.231-8.217 14.231 8.217zm-30.637 0l16.406 9.473 16.406-9.473L71.473 41.5l-16.406 9.472z" fill="#fff"/><path d="M94.239 71.259c-3.743 2.161-6.778 7.418-6.778 11.74 0 4.323 3.035 6.075 6.778 3.915 3.744-2.163 6.779-7.419 6.779-11.741 0-3.067-1.527-4.84-3.751-4.84-.912 0-1.94.298-3.028.926z" fill="url(#paint16_linear)"/><path d="M107.811 78.757c-3.744 2.161-6.779 7.418-6.779 11.74 0 4.323 3.035 6.076 6.779 3.914 3.744-2.16 6.778-7.418 6.778-11.74 0-3.067-1.527-4.84-3.751-4.84-.911 0-1.939.298-3.027.926z" fill="url(#paint17_linear)"/><path d="M121.381 86.31c-3.743 2.162-6.777 7.418-6.777 11.742 0 4.322 3.034 6.074 6.778 3.913 3.743-2.161 6.779-7.418 6.779-11.74 0-3.067-1.527-4.84-3.752-4.84-.911 0-1.939.297-3.028.926z" fill="url(#paint18_linear)"/><path d="M134.85 94.942c-3.744 2.161-6.778 7.417-6.778 11.741 0 4.322 3.035 6.074 6.779 3.913 3.744-2.161 6.778-7.418 6.778-11.741 0-3.066-1.527-4.839-3.751-4.839-.911 0-1.94.298-3.028.926z" fill="url(#paint19_linear)"/><path d="M148.183 102.545c-3.744 2.162-6.779 7.418-6.779 11.741 0 4.322 3.035 6.075 6.779 3.914 3.744-2.162 6.778-7.418 6.778-11.741 0-3.067-1.527-4.84-3.752-4.84-.91 0-1.939.298-3.026.926z" fill="url(#paint20_linear)"/><path d="M150.306 110.372L82.45 71.192l.324-.56 67.856 39.179-.324.561z" fill="#fff"/><path d="M150.467 135.815l22.278 12.862v-25.724l-22.277-12.862-.001 25.724z" fill="url(#paint21_linear)"/><path d="M195.023 110.091l-22.278 12.862-22.278-12.862 22.278-12.862 22.278 12.862z" fill="#fff"/><path d="M172.745 122.953l.001 25.724 22.277-12.862v-25.724l-22.278 12.862z" fill="url(#paint22_linear)"/><path d="M183.884 120.714c-3.744 2.162-6.779 7.418-6.779 11.741 0 4.323 3.035 6.075 6.779 3.914 3.744-2.162 6.779-7.418 6.779-11.741 0-3.067-1.527-4.839-3.752-4.839-.91 0-1.939.298-3.027.925z" fill="url(#paint23_linear)"/><path opacity=".5" d="M186.977 110.091l-14.232 8.217-14.232-8.217 14.232-8.217 14.232 8.217zm-30.638 0l16.406 9.473 16.406-9.473v-.648l-16.406-8.824-16.406 8.824v.648z" fill="#fff"/><path d="M186.977 109.443l-14.232 8.217-14.232-8.217 14.232-8.217 14.232 8.217zm-30.638 0l16.406 9.473 16.406-9.473-16.406-9.472-16.406 9.472z" fill="#fff"/><g opacity=".2"><path opacity=".2" d="M140.886 145.222l2.509-1.449-18.453-10.655c-.836.484-1.673.966-2.509 1.449l18.453 10.655z" fill="#fff"/><path opacity=".2" d="M122.433 134.567l-18.453-10.654 1.254-.724 18.454 10.654-1.255.724z" fill="#fff"/><path opacity=".2" d="M123.688 133.843l1.254-.725-9.226-5.326-1.255.724 9.227 5.327z" fill="#F2F5FC"/><path opacity=".2" d="M114.461 128.516l1.255-.725-9.227-5.327-1.255.725 9.227 5.327z" fill="#ECF0FA"/><path opacity=".2" d="M143.395 143.773l1.255-.725-9.227-5.327-1.254.724 9.226 5.328z" fill="#fff"/><path opacity=".2" d="M134.169 138.446l1.254-.725-9.226-5.327-1.255.724 9.227 5.328z" fill="#F2F5FC"/><path opacity=".2" d="M144.65 143.048l1.255-.724-9.227-5.327-1.255.724 9.227 5.327z" fill="#fff"/><path opacity=".2" d="M135.423 137.721l1.255-.724-9.226-5.328-1.255.725 9.226 5.327z" fill="#ECF0FA"/><path opacity=".2" d="M124.942 133.118l1.255-.724-9.227-5.327-1.254.725 9.226 5.326z" fill="#E6ECF9"/><path opacity=".2" d="M115.716 127.792l1.254-.725-9.226-5.327-1.255.724 9.227 5.328zm10.481 4.602l1.255-.725-9.227-5.326-1.255.724 9.227 5.327z" fill="#DDE5F7"/><path opacity=".2" d="M116.97 127.067l1.255-.724-9.227-5.328-1.254.725 9.226 5.327z" fill="#D3DEF5"/><path opacity=".2" d="M145.905 142.324l1.255-.725-9.227-5.327-1.255.725 9.227 5.327z" fill="#fff"/><path opacity=".2" d="M136.678 136.997l1.255-.725-9.227-5.327-1.254.724 9.226 5.328z" fill="#E9EEFA"/><path opacity=".2" d="M147.16 141.599l1.255-.724-9.227-5.327-1.255.724 9.227 5.327z" fill="#fff"/><path opacity=".2" d="M137.933 136.272l1.255-.724-9.227-5.327-1.255.724 9.227 5.327z" fill="#ECF0FA"/><path opacity=".2" d="M127.452 131.669l1.254-.724-9.226-5.327-1.255.725 9.227 5.326z" fill="#D9E3F6"/><path opacity=".2" d="M118.225 126.343l1.255-.725-9.227-5.327-1.255.724 9.227 5.328z" fill="#D0DBF4"/><path opacity=".2" d="M128.706 130.945l1.255-.724-9.226-5.328-1.255.725 9.226 5.327z" fill="#DDE5F7"/><path opacity=".2" d="M119.48 125.618l1.255-.725-9.227-5.326-1.255.724 9.227 5.327z" fill="#D3DEF5"/><path opacity=".2" d="M148.414 140.875l2.51-1.449-18.453-10.654-2.51 1.448 18.453 10.655z" fill="#fff"/><path opacity=".2" d="M129.961 130.221l1.255-.725-9.226-5.327-1.255.724 9.226 5.328z" fill="#E6ECF9"/><path opacity=".2" d="M120.735 124.893l1.254-.724-9.226-5.327-1.255.725 9.227 5.326z" fill="#DDE5F7"/><path opacity=".2" d="M131.216 129.496l-18.453-10.654 1.255-.724 18.453 10.654-1.255.724z" fill="#F2F5FC"/><path opacity=".2" d="M103.98 123.913l-18.462-10.659 1.255-.725 18.461 10.66-1.254.724z" fill="#fff"/><path opacity=".2" d="M105.234 123.189l1.255-.725-9.23-5.329-1.255.724 9.23 5.33z" fill="#E9EEFA"/><path opacity=".2" d="M96.004 117.859l1.254-.725-9.23-5.329-1.255.724 9.23 5.33z" fill="#ECF0FA"/><path opacity=".2" d="M85.518 113.254l2.51-1.449-18.462-10.659-2.51 1.449 18.462 10.659z" fill="#fff"/><path opacity=".2" d="M106.489 122.464l1.255-.724-9.231-5.33-1.255.724 9.231 5.33z" fill="#D9E3F6"/><path opacity=".2" d="M97.258 117.134l1.255-.724-9.23-5.329-1.256.724 9.231 5.329z" fill="#DDE5F7"/><path opacity=".2" d="M107.744 121.74l1.254-.725-9.23-5.329-1.255.724 9.231 5.33z" fill="#D0DBF4"/><path opacity=".2" d="M98.513 116.41l1.255-.724-9.231-5.33-1.255.725 9.23 5.329z" fill="#D3DEF5"/><path opacity=".2" d="M88.027 111.805l1.255-.724-9.23-5.33-1.255.725 9.23 5.329z" fill="#E6ECF9"/><path opacity=".2" d="M78.797 106.476l1.254-.725-9.23-5.33-1.255.725 9.23 5.33z" fill="#F2F5FC"/><path opacity=".2" d="M89.282 111.081l1.255-.725-9.231-5.33-1.255.725 9.231 5.33z" fill="#DDE5F7"/><path opacity=".2" d="M80.051 105.751l1.255-.725-9.23-5.329-1.256.724 9.231 5.33z" fill="#ECF0FA"/><path opacity=".2" d="M108.998 121.015l1.255-.724-9.231-5.33-1.254.725 9.23 5.329z" fill="#CDD9F3"/><path opacity=".2" d="M99.768 115.686l1.254-.725-9.23-5.329-1.255.724 9.23 5.33zm10.485 4.605l1.255-.725-9.231-5.329-1.255.724 9.231 5.33z" fill="#D0DBF4"/><path opacity=".2" d="M101.022 114.961l1.255-.724-9.23-5.33-1.256.725 9.231 5.329z" fill="#D3DEF5"/><path opacity=".2" d="M90.537 110.356l1.254-.724-9.23-5.33-1.255.724 9.23 5.33z" fill="#D9E3F6"/><path opacity=".2" d="M81.306 105.026l1.255-.724-9.231-5.33-1.255.725 9.23 5.329z" fill="#E9EEFA"/><path opacity=".2" d="M91.791 109.632l1.255-.725-9.23-5.33-1.255.725 9.23 5.33z" fill="#DDE5F7"/><path opacity=".2" d="M82.56 104.302l1.255-.725-9.23-5.33-1.255.725 9.23 5.33z" fill="#ECF0FA"/><path opacity=".2" d="M111.508 119.567l1.255-.725-9.231-5.33-1.255.725 9.231 5.33z" fill="#D9E3F6"/><path opacity=".2" d="M102.277 114.237l1.255-.725-9.231-5.329-1.255.724 9.231 5.33z" fill="#DDE5F7"/><path opacity=".2" d="M112.763 118.842l-18.462-10.659 1.255-.725 18.462 10.66-1.255.724z" fill="#E9EEFA"/><path opacity=".2" d="M93.046 108.907l2.51-1.449-18.462-10.659-2.51 1.449 18.462 10.659z" fill="#E6ECF9"/></g><path d="M81.11 98.876l6.464 11.195 1.467-.847-6.464-11.195-1.466.847z" fill="url(#paint24_linear)"/><path d="M109.829 108.352l6.464 11.195 1.466-.847-6.463-11.195-1.467.847z" fill="url(#paint25_linear)"/><path d="M100.205 102.779l9.624 5.573 1.467-.847-9.624-5.574-1.467.848z" fill="url(#paint26_linear)"/><path d="M116.293 119.547l8.648 5.012 1.467-.847-8.649-5.012-1.466.847z" fill="url(#paint27_linear)"/><path d="M137.647 117.222l.832 1.44 1.467-.847-.831-1.44-1.468.847z" fill="url(#paint28_linear)"/><path d="M74.26 102.832l.83 1.439 6.021-3.477 6.464 11.196 13.119-7.575 8.649 5.012 6.463 11.195 9.624 5.574 12.028-6.944 1.021-.59-.832-1.44-1.02.591-11.686 6.746-8.648-5.012-6.464-11.195-9.624-5.573-12.631 7.292-6.464-11.195-6.85 3.956z" fill="url(#paint29_linear)"/><path d="M135.28 115.479l3.519 2.042 1.467-.848-3.519-2.041-1.467.847z" fill="url(#paint30_linear)"/><path d="M138.805 121.585l-.006-4.065-3.519-2.041 3.525 6.106z" fill="url(#paint31_linear)"/><path d="M138.799 117.52l.006 4.065 1.466-.848-.005-4.064-1.467.847z" fill="url(#paint32_linear)"/><path d="M31.905 119.809h-2.362v3.455c0 4.077 5.724 7.382 12.785 7.382s12.785-3.305 12.785-7.382v-3.455h-2.361c-2.317-1.88-6.12-3.109-10.424-3.109-4.303 0-8.106 1.229-10.423 3.109z" fill="url(#paint33_linear)"/><path d="M30.457 114.439h-2.69v5.403c0 4.643 6.519 8.407 14.56 8.407 8.043 0 14.563-3.764 14.563-8.407v-5.403h-2.691c-2.639-2.143-6.97-3.542-11.871-3.542-4.9 0-9.232 1.399-11.871 3.542z" fill="url(#paint34_linear)"/><path d="M27.767 114.438c0 4.644 6.519 8.407 14.56 8.407 8.043 0 14.563-3.763 14.563-8.407 0-4.643-6.52-8.407-14.562-8.407s-14.561 3.764-14.561 8.407z" fill="url(#paint35_linear)"/><path d="M27.767 114.438c0 4.644 6.52 8.407 14.56 8.407 8.043 0 14.563-3.763 14.563-8.407 0-4.643-6.52-8.407-14.562-8.407s-14.561 3.764-14.561 8.407z" fill="#fff"/><path d="M31.905 110.328h-2.362v3.454c0 4.077 5.724 7.382 12.785 7.382s12.785-3.305 12.785-7.382v-3.454h-2.361c-2.317-1.882-6.12-3.109-10.424-3.109-4.303 0-8.106 1.227-10.423 3.109z" fill="url(#paint36_linear)"/><path d="M30.457 104.957h-2.69v5.403c0 4.644 6.519 8.407 14.56 8.407 8.043 0 14.563-3.763 14.563-8.407v-5.403h-2.691c-2.639-2.143-6.97-3.542-11.871-3.542-4.9 0-9.232 1.399-11.871 3.542z" fill="url(#paint37_linear)"/><path d="M27.767 104.957c0 4.643 6.519 8.407 14.56 8.407 8.043 0 14.563-3.764 14.563-8.407 0-4.643-6.52-8.408-14.562-8.408s-14.561 3.765-14.561 8.408z" fill="url(#paint38_linear)"/><path d="M27.767 104.957c0 4.643 6.52 8.407 14.56 8.407 8.043 0 14.563-3.764 14.563-8.407 0-4.644-6.52-8.408-14.562-8.408s-14.561 3.764-14.561 8.408z" fill="#fff"/><path d="M31.905 100.846h-2.362v3.454c0 4.077 5.724 7.382 12.785 7.382s12.785-3.305 12.785-7.382v-3.454h-2.361c-2.317-1.881-6.12-3.11-10.424-3.11-4.303 0-8.106 1.229-10.423 3.11z" fill="url(#paint39_linear)"/><path d="M30.457 95.475h-2.69v5.403c0 4.643 6.519 8.407 14.56 8.407 8.043 0 14.563-3.764 14.563-8.407v-5.403h-2.691c-2.639-2.143-6.97-3.542-11.871-3.542-4.9 0-9.232 1.399-11.871 3.541z" fill="url(#paint40_linear)"/><path d="M27.767 95.475c0 4.643 6.519 8.407 14.56 8.407 8.043 0 14.563-3.764 14.563-8.407 0-4.643-6.52-8.407-14.562-8.407s-14.561 3.764-14.561 8.407z" fill="url(#paint41_linear)"/><path d="M27.767 95.475c0 4.643 6.52 8.407 14.56 8.407 8.043 0 14.563-3.764 14.563-8.407 0-4.644-6.52-8.407-14.562-8.407s-14.561 3.763-14.561 8.407z" fill="#fff"/><path fill-rule="evenodd" clip-rule="evenodd" d="M39.157 92.825a.892.892 0 11-1.784-.001.892.892 0 011.784.001zm3.173-3.392a.892.892 0 11-1.785 0 .892.892 0 011.784 0zm2.82 2.5a.892.892 0 11-1.783 0 .892.892 0 011.784 0zm1.382-6.953a.62.62 0 11-1.24.001.62.62 0 011.24 0zm-9.317-.332a.62.62 0 11-1.239 0 .62.62 0 011.24 0zm-1.239-2.218a.446.446 0 11-.892 0 .446.446 0 01.892 0zm17.629-1.626a.446.446 0 11-.892-.001.446.446 0 01.892 0z" fill="#fff"/><path d="M129.016 149.703a.317.317 0 01-.162-.043l-76.937-44.423a.325.325 0 01.324-.561l76.937 44.423a.323.323 0 01-.162.604zm0 9.235a.317.317 0 01-.162-.043l-76.937-44.423a.324.324 0 11.324-.561l76.937 44.423a.323.323 0 01-.162.604zm0 9.235a.319.319 0 01-.162-.044l-76.937-44.423a.324.324 0 01.324-.561l76.937 44.423a.324.324 0 01-.162.605z" fill="#fff"/><path d="M125.141 173.597h-2.362v3.455c0 4.077 5.725 7.382 12.786 7.382s12.786-3.305 12.786-7.382v-3.455h-2.363c-2.317-1.881-6.12-3.109-10.423-3.109-4.302 0-8.106 1.228-10.424 3.109z" fill="url(#paint42_linear)"/><path d="M123.694 168.227h-2.69v5.403c0 4.643 6.519 8.407 14.561 8.407s14.561-3.764 14.561-8.407v-5.403h-2.689c-2.64-2.144-6.972-3.542-11.872-3.542-4.9 0-9.232 1.398-11.871 3.542z" fill="url(#paint43_linear)"/><path d="M121.004 168.227c0 4.642 6.519 8.407 14.561 8.407s14.562-3.765 14.562-8.407c0-4.644-6.52-8.408-14.562-8.408s-14.561 3.764-14.561 8.408z" fill="url(#paint44_linear)"/><path d="M121.004 168.227c0 4.642 6.519 8.407 14.561 8.407s14.561-3.765 14.561-8.407c0-4.644-6.519-8.408-14.561-8.408s-14.561 3.764-14.561 8.408z" fill="#fff"/><path d="M125.141 164.116h-2.362v3.454c0 4.077 5.725 7.382 12.786 7.382s12.786-3.305 12.786-7.382v-3.454h-2.363c-2.317-1.881-6.12-3.11-10.423-3.11-4.302 0-8.106 1.229-10.424 3.11z" fill="url(#paint45_linear)"/><path d="M123.694 158.744h-2.69v5.404c0 4.643 6.519 8.407 14.561 8.407s14.561-3.764 14.561-8.407v-5.404h-2.689c-2.64-2.142-6.972-3.541-11.872-3.541-4.9 0-9.232 1.399-11.871 3.541z" fill="url(#paint46_linear)"/><path d="M121.004 158.744c0 4.644 6.519 8.408 14.561 8.408s14.561-3.764 14.561-8.408c0-4.643-6.519-8.407-14.561-8.407s-14.561 3.764-14.561 8.407z" fill="url(#paint47_linear)"/><path d="M121.004 158.744c0 4.644 6.519 8.408 14.561 8.408s14.561-3.764 14.561-8.408c0-4.643-6.519-8.407-14.561-8.407s-14.561 3.764-14.561 8.407z" fill="#fff"/><path d="M125.141 154.634h-2.362v3.455c0 4.076 5.725 7.381 12.786 7.381s12.786-3.305 12.786-7.381v-3.455h-2.363c-2.317-1.881-6.12-3.11-10.423-3.11-4.302 0-8.106 1.229-10.424 3.11z" fill="url(#paint48_linear)"/><path d="M123.694 149.263h-2.69v5.403c0 4.643 6.519 8.407 14.561 8.407s14.561-3.764 14.561-8.407v-5.403h-2.689c-2.64-2.143-6.972-3.542-11.872-3.542-4.9 0-9.232 1.399-11.871 3.542z" fill="url(#paint49_linear)"/><path d="M121.004 149.262c0 4.643 6.519 8.408 14.561 8.408s14.562-3.765 14.562-8.408c0-4.643-6.52-8.407-14.562-8.407s-14.561 3.764-14.561 8.407z" fill="url(#paint50_linear)"/><path d="M121.004 149.263c0 4.643 6.519 8.407 14.561 8.407s14.561-3.764 14.561-8.407c0-4.643-6.519-8.408-14.561-8.408s-14.561 3.765-14.561 8.408z" fill="#fff"/><path d="M103.303 58.072l11.309 6.554-.021-13.07-11.309-6.554.021 13.07z" fill="url(#paint51_linear)"/><path d="M103.282 45.002l9.053-5.227 11.308 6.554-9.052 5.226-11.309-6.553z" fill="#fff"/><path d="M114.591 51.556l.021 13.07 9.053-5.227-.022-13.07-9.052 5.227z" fill="url(#paint52_linear)"/><path d="M130.545 47.741l.041 26.143 9.052-5.227-.04-26.142-9.053 5.226z" fill="url(#paint53_linear)"/><path d="M119.234 41.189l9.052-5.227 11.311 6.552-9.052 5.227-11.311-6.552z" fill="#fff"/><path d="M119.278 67.33l11.308 6.554-.041-26.143-11.311-6.552.044 26.14z" fill="url(#paint54_linear)"/><path d="M146.496 43.928l.063 39.213 9.053-5.227-.063-39.212-9.053 5.226z" fill="url(#paint55_linear)"/><path d="M135.188 37.374l9.053-5.226 11.308 6.554-9.052 5.226-11.309-6.553z" fill="#fff"/><path d="M135.251 76.587l11.308 6.554-.063-39.213-11.308-6.554.063 39.213z" fill="url(#paint56_linear)"/><path d="M139.611 39.937l1.378-.795 1.721.997-1.377.796-1.722-.998z" fill="url(#paint57_linear)"/><path d="M141.345 75.095l-1.722-.998-.012-34.16 1.722.998.012 34.16z" fill="url(#paint58_linear)"/><path opacity=".2" d="M141.333 40.935l1.377-.796.013 34.16-1.378.796-.012-34.16z" fill="url(#paint59_linear)"/><path d="M143.054 41.933l1.378-.796 1.721.998-1.378.795-1.721-.997z" fill="url(#paint60_linear)"/><path d="M144.788 77.091l-1.722-.998-.012-34.16 1.721.997.013 34.161z" fill="url(#paint61_linear)"/><path opacity=".2" d="M144.775 42.93l1.378-.795.013 34.16-1.378.796-.013-34.16z" fill="url(#paint62_linear)"/><path d="M146.496 43.928l1.379-.795 1.721.997-1.378.796-1.722-.998z" fill="url(#paint63_linear)"/><path d="M148.231 79.086l-1.721-.998-.014-34.16 1.722.998.013 34.16z" fill="url(#paint64_linear)"/><path opacity=".2" d="M148.218 44.926l1.378-.796.013 34.16-1.378.796-.013-34.16z" fill="url(#paint65_linear)"/><path d="M162.492 66.257l.043 26.14 9.053-5.227-.044-26.14-9.052 5.227z" fill="url(#paint66_linear)"/><path d="M151.183 59.702l9.053-5.226 11.308 6.554-9.053 5.226-11.308-6.554z" fill="#fff"/><path d="M151.224 85.844l11.311 6.553-.043-26.14-11.309-6.555.041 26.142z" fill="url(#paint67_linear)"/><path d="M155.761 82.914l5.388-3.11 6.73 3.9-5.387 3.11-6.731-3.9z" fill="#fff"/><path d="M155.813 84.224l6.73 3.9-.051-1.31-6.731-3.9.052 1.31z" fill="url(#paint68_linear)"/><path d="M162.492 86.814l.051 1.31 5.387-3.11-.051-1.31-5.387 3.11z" fill="url(#paint69_linear)"/><path d="M155.761 79.947l5.388-3.11 6.73 3.9-5.387 3.11-6.731-3.9z" fill="#fff"/><path d="M155.813 81.257l6.73 3.9-.051-1.31-6.731-3.9.052 1.31z" fill="url(#paint70_linear)"/><path d="M162.492 83.848l.051 1.31 5.387-3.11-.051-1.311-5.387 3.11z" fill="url(#paint71_linear)"/><path d="M155.761 76.98l5.388-3.11 6.73 3.9-5.387 3.11-6.731-3.9z" fill="#fff"/><path d="M155.813 78.29l6.73 3.9-.051-1.31-6.731-3.9.052 1.31z" fill="url(#paint72_linear)"/><path d="M162.492 80.88l.051 1.31 5.387-3.11-.051-1.31-5.387 3.11z" fill="url(#paint73_linear)"/><path d="M155.761 74.013l5.388-3.11 6.73 3.9-5.387 3.11-6.731-3.9z" fill="#fff"/><path d="M155.813 75.323l6.73 3.9-.051-1.31-6.731-3.9.052 1.31z" fill="url(#paint74_linear)"/><path d="M162.492 77.913l.051 1.31 5.387-3.11-.051-1.31-5.387 3.11z" fill="url(#paint75_linear)"/><path d="M155.761 71.046l5.388-3.11 6.73 3.9-5.387 3.11-6.731-3.9z" fill="#fff"/><path d="M155.813 72.356l6.73 3.9-.051-1.31-6.731-3.9.052 1.31z" fill="url(#paint76_linear)"/><path d="M162.492 74.946l.051 1.31 5.387-3.11-.051-1.31-5.387 3.11z" fill="url(#paint77_linear)"/><path d="M155.761 68.079l5.388-3.11 6.73 3.9-5.387 3.11-6.731-3.9z" fill="#fff"/><path d="M155.813 69.389l6.73 3.9-.051-1.31-6.731-3.9.052 1.31z" fill="url(#paint78_linear)"/><path d="M162.492 71.98l.051 1.31 5.387-3.111-.051-1.31-5.387 3.11z" fill="url(#paint79_linear)"/><path d="M155.761 65.112l5.388-3.11 6.73 3.9-5.387 3.11-6.731-3.9z" fill="#fff"/><path d="M155.813 66.422l6.73 3.9-.051-1.31-6.731-3.9.052 1.31z" fill="url(#paint80_linear)"/><path d="M162.492 69.013l.051 1.309 5.387-3.11-.051-1.31-5.387 3.11z" fill="url(#paint81_linear)"/><path d="M167.091 29.749l9.053-5.226 11.309 6.553-9.053 5.227-11.309-6.554z" fill="#fff"/><path d="M167.198 95.097l11.308 6.554-.106-65.348-11.309-6.554.107 65.348z" fill="url(#paint82_linear)"/><path d="M178.4 36.303l.106 65.348 9.053-5.226-.107-65.349-9.052 5.227z" fill="url(#paint83_linear)"/><path d="M175.179 79.652v7.178c0 .193.135.427.302.523.166.096.301.019.301-.174l.001-7.178a.67.67 0 00-.302-.523c-.167-.097-.302-.018-.302.174zm.001-28.427v7.178c0 .193.134.427.302.523.165.096.301.019.301-.174v-7.178a.672.672 0 00-.301-.523c-.168-.097-.302-.018-.302.174zm0 10.05v.358c0 .193.134.427.302.523.165.097.301.019.301-.174v-.358a.67.67 0 00-.301-.523c-.168-.097-.302-.018-.302.174zm0 2l-.001 4.424c0 .194.135.427.303.524.165.096.301.018.301-.175v-4.425a.67.67 0 00-.301-.523c-.168-.096-.302-.019-.302.174zm-.001 5.685v1.52c0 .192.135.427.303.523.165.096.301.018.301-.174v-1.52a.671.671 0 00-.301-.524c-.168-.096-.303-.018-.303.175zm0 6.311v1.521c0 .192.135.427.302.523.166.096.302.018.302-.174v-1.52a.67.67 0 00-.302-.524c-.167-.096-.302-.018-.302.174zm0 17.473v1.52c0 .193.135.427.302.523.166.097.301.018.301-.174v-1.52a.669.669 0 00-.301-.523c-.167-.096-.302-.019-.302.174zm0-1.523v.358c0 .193.135.427.302.523.166.097.301.019.301-.174v-.358a.668.668 0 00-.301-.523c-.167-.097-.302-.018-.302.174zm.001-47.045v1.52a.67.67 0 00.302.524c.166.096.301.017.301-.175v-1.52a.67.67 0 00-.301-.524c-.167-.095-.302-.018-.302.175zm0-3.643v1.52c0 .193.135.427.302.523.166.097.301.018.301-.174v-1.52a.669.669 0 00-.301-.524c-.167-.095-.302-.018-.302.175zm-.001 32.07v1.52c0 .192.135.427.302.523.166.097.302.018.302-.174v-1.52a.671.671 0 00-.301-.524c-.168-.096-.303-.018-.303.175zm.001-25.759v1.521c0 .193.135.427.302.523.165.096.301.018.301-.174v-1.52a.67.67 0 00-.301-.524c-.167-.096-.302-.017-.302.174zm-1.307 39.39c-.167-.096-.301-.018-.301.175v7.178c0 .192.134.427.301.522.167.097.302.019.302-.173v-7.179a.664.664 0 00-.302-.523zm0-10.692c-.166-.097-.301-.018-.301.174v1.52a.67.67 0 00.301.524c.168.096.302.018.302-.175v-1.52a.664.664 0 00-.302-.523zm-.301 5.338c0 .193.135.427.301.523.168.096.302.018.302-.175v-1.52a.664.664 0 00-.302-.523c-.166-.096-.301-.018-.301.174v1.52zm.603 3.017v-1.52a.663.663 0 00-.302-.523c-.166-.096-.301-.019-.301.174v1.52c0 .194.134.427.301.523.168.097.302.02.302-.174zm-.603-44.292v.358c0 .193.135.427.302.523.167.097.302.018.302-.174v-.359a.667.667 0 00-.302-.522c-.167-.097-.302-.018-.302.174zm.301 30.252c-.166-.097-.301-.018-.301.174v4.426a.67.67 0 00.301.523c.168.096.302.018.302-.175V70.38a.663.663 0 00-.302-.523zm.001-28.427c-.167-.097-.302-.018-.302.174v4.426c0 .192.135.426.302.523.167.096.302.018.302-.175v-4.425a.666.666 0 00-.302-.523zm0 5.685c-.167-.096-.302-.018-.302.174v1.52a.67.67 0 00.302.524c.167.096.302.018.302-.175v-1.52a.666.666 0 00-.302-.523zm-.302 20.917v.358c0 .192.135.427.301.523.168.096.302.018.302-.174v-.359a.663.663 0 00-.302-.522c-.166-.097-.301-.019-.301.174zm.604-12.562v-1.52a.665.665 0 00-.302-.523c-.167-.096-.302-.019-.302.175v1.52c0 .193.135.426.302.522.167.097.302.02.302-.174zm-.302 2.338c-.167-.097-.302-.019-.302.174v7.178c0 .192.135.427.301.523.168.096.303.018.303-.175v-7.177a.666.666 0 00-.302-.523zm-.302-5.355c0 .193.135.427.302.523.167.096.302.018.302-.175v-1.52a.667.667 0 00-.302-.523c-.167-.096-.302-.018-.302.175v1.52zm-1.179 40.453v-1.52a.666.666 0 00-.302-.523c-.167-.097-.302-.018-.302.174v1.52a.67.67 0 00.302.524c.167.096.302.018.302-.175zm-.604-35.087a.67.67 0 00.302.523c.167.096.302.018.302-.174v-1.521a.665.665 0 00-.302-.523c-.166-.096-.302-.018-.302.174v1.52zm0 13.996c0 .193.136.427.302.523.167.097.302.018.302-.174v-.358a.665.665 0 00-.302-.523c-.166-.097-.302-.019-.302.174v.358zm.604-18.028l.001-7.178a.669.669 0 00-.302-.523c-.167-.096-.303-.018-.303.175v7.177a.67.67 0 00.302.523c.167.097.302.018.302-.174zm-.302 16.553c.167.095.302.017.302-.175V65.74a.667.667 0 00-.302-.524c-.166-.096-.302-.018-.302.174v4.426a.67.67 0 00.302.523zm-.302 18.575c0 .192.135.426.302.523.167.096.302.018.302-.175v-1.52a.666.666 0 00-.302-.523c-.167-.097-.302-.019-.302.174v1.52zm0-47.046c0 .193.136.427.303.523.166.097.302.019.302-.174v-.359a.669.669 0 00-.302-.522c-.167-.096-.303-.019-.303.174v.358zm.604 40.345v-7.178a.665.665 0 00-.302-.523c-.167-.096-.302-.018-.302.174v7.178c0 .193.135.427.302.523.167.097.302.018.302-.174zm-.603-43.388l-.001 1.52a.67.67 0 00.303.524c.166.096.302.018.302-.175v-1.52a.669.669 0 00-.302-.523c-.167-.096-.302-.018-.302.174zm-.001 21.662a.67.67 0 00.302.523c.167.096.302.018.302-.175v-1.52a.666.666 0 00-.302-.523c-.166-.096-.302-.018-.302.174v1.52zm0 25.758c0 .192.135.427.302.523.167.096.302.018.302-.175v-1.52a.667.667 0 00-.302-.523c-.167-.096-.302-.018-.302.174v1.52zm.604-21.766v-1.521a.666.666 0 00-.302-.523c-.166-.096-.302-.018-.302.174v1.52a.67.67 0 00.302.524c.167.096.302.018.302-.174zm-1.607-8.613v-1.52a.668.668 0 00-.302-.524c-.166-.096-.301-.017-.301.175v1.52c0 .193.135.427.301.523.167.096.302.019.302-.174zm0-6.312v-1.52a.667.667 0 00-.302-.523c-.166-.097-.301-.019-.301.174v1.52c0 .193.135.427.301.523.167.097.302.018.302-.174zm0 2.669v-1.52a.667.667 0 00-.302-.524c-.166-.096-.301-.018-.301.175v1.52c0 .192.135.427.301.523.167.096.302.019.302-.174zm0-7.05v-7.178a.667.667 0 00-.302-.523c-.166-.096-.301-.018-.301.175v7.178c0 .193.135.426.301.523.167.096.302.018.302-.174zm0 16.378v-4.425a.666.666 0 00-.302-.523c-.166-.096-.301-.018-.301.174v4.426c0 .192.134.426.301.523.166.096.302.018.302-.175zm0 22.742v-1.52a.67.67 0 00-.302-.524c-.167-.096-.302-.017-.302.174v1.522c0 .191.135.426.302.522.166.096.302.019.302-.174zm0 7.685v-.36a.67.67 0 00-.302-.522c-.167-.096-.302-.018-.302.174v.358c0 .194.135.427.302.524.166.096.302.018.302-.174zm0-11.329v-1.52a.67.67 0 00-.302-.523c-.167-.096-.302-.018-.302.174v1.52c0 .193.135.428.302.524.166.096.302.019.302-.175zm0 9.33v-4.426a.669.669 0 00-.302-.523c-.167-.097-.302-.018-.302.174v4.426c0 .192.135.426.302.522.166.097.302.019.302-.174zm0-26.428v-.36a.67.67 0 00-.302-.522c-.167-.096-.301-.018-.301.174v.358c0 .194.134.428.301.524.166.096.302.018.302-.174zm0 14.43v-1.52a.67.67 0 00-.302-.523c-.167-.097-.302-.019-.302.174v1.52c0 .193.135.427.302.523.166.096.302.018.302-.174zm0-4.38v-7.179a.67.67 0 00-.302-.523c-.167-.096-.301-.018-.301.174v7.179c0 .192.134.426.301.523.166.096.302.018.302-.174z" fill="url(#paint84_linear)"/><path d="M183.086 52.077l9.053-5.227 11.308 6.554-9.052 5.227-11.309-6.554z" fill="#fff"/><path d="M183.171 104.355l11.309 6.553-.085-52.277-11.309-6.554.085 52.278z" fill="url(#paint85_linear)"/><path d="M194.395 58.631l.085 52.277 9.052-5.226-.085-52.277-9.052 5.226z" fill="url(#paint86_linear)"/><path d="M187.665 54.73l5.388-3.11 6.729 3.9-5.387 3.11-6.73-3.9z" fill="url(#paint87_linear)"/><path d="M194.446 107.235l-6.731-3.9-.05-48.605 6.73 3.9.051 48.605z" fill="url(#paint88_linear)"/><path opacity=".2" d="M194.395 58.63l5.387-3.11.051 48.606-5.387 3.109-.051-48.605z" fill="url(#paint89_linear)"/><path d="M203.447 53.404l-9.053 5.227-11.308-6.554.002.399 11.307 6.588 9.052-5.163v-.497z" fill="#C3D2FB"/><path opacity=".5" fill-rule="evenodd" clip-rule="evenodd" d="M203.447 53.837l-9.053 5.227-11.308-6.554.002.399 11.307 6.588 9.052-5.162v-.498z" fill="#fff"/><path d="M203.447 59.25l-9.053 5.226-11.308-6.554.002.4 11.307 6.587 9.052-5.162v-.497z" fill="#C3D2FB"/><path opacity=".5" fill-rule="evenodd" clip-rule="evenodd" d="M203.447 59.683l-9.053 5.227-11.308-6.554.002.399 11.307 6.588 9.052-5.163v-.497z" fill="#fff"/><path d="M203.447 65.096l-9.053 5.226-11.308-6.554.002.4 11.307 6.587 9.052-5.162v-.497z" fill="#C3D2FB"/><path opacity=".5" fill-rule="evenodd" clip-rule="evenodd" d="M203.447 65.529l-9.053 5.226-11.308-6.554.002.4 11.307 6.588 9.052-5.163v-.497z" fill="#fff"/><path d="M203.447 70.941l-9.053 5.227-11.308-6.554.002.399 11.307 6.588 9.052-5.163v-.497z" fill="#C3D2FB"/><path opacity=".5" fill-rule="evenodd" clip-rule="evenodd" d="M203.447 71.374l-9.053 5.227-11.308-6.554.002.399 11.307 6.588 9.052-5.162v-.498z" fill="#fff"/><path d="M203.447 76.787l-9.053 5.226-11.308-6.554.002.4 11.307 6.588 9.052-5.163v-.497z" fill="#C3D2FB"/><path opacity=".5" fill-rule="evenodd" clip-rule="evenodd" d="M203.447 77.22l-9.053 5.227-11.308-6.554.002.399 11.307 6.588 9.052-5.163v-.497z" fill="#fff"/><path d="M203.447 82.632l-9.053 5.227-11.308-6.554.002.399 11.307 6.588 9.052-5.163v-.497z" fill="#C3D2FB"/><path opacity=".5" fill-rule="evenodd" clip-rule="evenodd" d="M203.447 83.066l-9.053 5.226-11.308-6.553.002.399 11.307 6.588 9.052-5.163v-.497z" fill="#fff"/><path d="M203.447 88.478l-9.053 5.227-11.308-6.554.002.399 11.307 6.588 9.052-5.163v-.497z" fill="#C3D2FB"/><path opacity=".5" fill-rule="evenodd" clip-rule="evenodd" d="M203.447 88.912l-9.053 5.226-11.308-6.554.002.4 11.307 6.588 9.052-5.163v-.497z" fill="#fff"/><path d="M203.447 94.324l-9.053 5.227-11.308-6.555.002.4 11.307 6.588 9.052-5.163v-.497z" fill="#C3D2FB"/><path opacity=".5" fill-rule="evenodd" clip-rule="evenodd" d="M203.447 94.757l-9.053 5.227-11.308-6.554.002.399 11.307 6.588 9.052-5.162v-.498z" fill="#fff"/><path d="M203.447 100.17l-9.053 5.226-11.308-6.554.002.4 11.307 6.587 9.052-5.163v-.496z" fill="#C3D2FB"/><path opacity=".5" fill-rule="evenodd" clip-rule="evenodd" d="M203.447 100.603l-9.053 5.226-11.308-6.554.002.4 11.307 6.588 9.052-5.163v-.497z" fill="#fff"/><path d="M127.106 52.767v7.178c0 .193.135.426.302.523.167.096.302.018.302-.175v-7.177a.666.666 0 00-.302-.523c-.167-.097-.302-.018-.302.174zm0-4.38v1.52c0 .192.135.427.302.523.167.096.302.018.302-.174v-1.521a.667.667 0 00-.302-.523c-.167-.096-.302-.018-.302.174zm0 17.472v1.52c0 .193.135.427.302.523.167.096.302.018.302-.174v-1.52a.666.666 0 00-.302-.523c-.167-.097-.302-.019-.302.174zm0-1.523v.359c0 .192.135.426.302.522.167.096.302.019.302-.174v-.358a.668.668 0 00-.302-.524c-.167-.096-.302-.018-.302.175zM125.8 59.35c-.166-.097-.301-.02-.301.174v7.178c0 .192.135.427.301.523.167.096.302.018.302-.175l.001-7.178a.666.666 0 00-.303-.522zm.001-12.105c-.167-.096-.302-.018-.302.175v2.932c0 .192.135.426.302.523.166.096.302.018.302-.175v-2.932a.67.67 0 00-.302-.523zm-.302 6.75a.67.67 0 00.301.523c.167.096.303.018.303-.175v-1.52a.67.67 0 00-.302-.523c-.167-.096-.302-.018-.302.174v1.52zm.604 3.017v-1.52a.666.666 0 00-.303-.523c-.166-.096-.301-.019-.301.174v1.52c0 .194.135.427.301.523.167.097.303.018.303-.174zm-1.783 9.01V64.5a.666.666 0 00-.302-.523c-.166-.096-.302-.019-.302.174v1.52a.67.67 0 00.302.524c.167.096.302.018.302-.175zm-.604-3.993a.67.67 0 00.302.524c.167.096.302.017.302-.175v-1.52a.665.665 0 00-.302-.523c-.166-.096-.301-.019-.301.174l-.001 1.52zm.604-6.7l.001-8.531a.668.668 0 00-.303-.523c-.166-.096-.301-.018-.301.174v8.531c0 .193.135.427.301.523.167.097.302.018.302-.174zm-.603 4.032c0 .192.135.427.301.522.167.097.302.019.302-.174v-1.52a.667.667 0 00-.302-.523c-.166-.096-.301-.018-.301.174v1.52zm-1.004-1.953v-1.52a.667.667 0 00-.302-.523c-.167-.096-.302-.018-.302.174v1.522c0 .191.135.426.302.522.167.096.302.018.302-.175zm0 7.685v-.358a.667.667 0 00-.302-.523c-.167-.096-.302-.018-.302.174v.358c0 .194.135.427.302.523.167.097.302.02.302-.174zm0-11.328v-1.52a.667.667 0 00-.302-.523c-.166-.096-.302-.018-.302.174v1.52c0 .193.135.428.302.524.167.096.302.018.302-.174zm0 9.33v-4.426a.666.666 0 00-.302-.523c-.167-.097-.302-.018-.302.174v4.426c0 .192.135.426.302.523.167.095.302.018.302-.175zm0-11.998v-1.52a.667.667 0 00-.302-.523c-.166-.097-.302-.019-.302.174v1.52a.67.67 0 00.302.523c.167.096.302.018.302-.174zm0-3.733v-1.473a.667.667 0 00-.302-.523c-.166-.097-.302-.018-.302.174v1.474c0 .192.136.426.302.522.167.097.302.019.302-.173z" fill="url(#paint90_linear)"/><path d="M160.25 122.833l-5.867-3.387v1.359l5.867 3.387v-1.359zm-5.867-4.746l8.211 4.741v-1.359l-8.211-4.741v1.359zm9.38 9.489v1.359l1.176.679v-1.359l-1.176-.679zm-2.345.005l1.176.68v-1.36l-1.176-.679v1.359zm-2.345-1.354l1.177.68v-1.36l-1.177-.679v1.359zm-4.69-2.707l1.177.679v-1.358l-1.177-.68v1.359zm2.345 1.353l1.177.68v-1.358l-1.177-.68v1.358z" fill="#fff"/><path d="M231.783 72.592c-.887-.04-.57-.054-1.11-.108-.251-.034-.487-.135-.572-.073-.055.04-.017.235.018.27.285.297 1.122 1.045 1.916 1.32.526.094.77-.038.794-.289.043-.44.032-.84-.064-1.16l-.982.04z" fill="#FAAF1E"/><path d="M231.783 72.37c-.887-.04-.57-.053-1.11-.108-.412-.055-.643.106-.554.198.285.296 1.122 1.045 1.916 1.32.526.093.77-.038.794-.29.043-.439.032-.84-.064-1.16l-.982.04z" fill="#FAAD17"/><path d="M233.418 54.59c-.258 3.032-.516 6.043-.642 9.05a90.95 90.95 0 00.04 8.596.474.474 0 01-.42.496l-.391.046a.48.48 0 01-.529-.395 92.513 92.513 0 01-1.081-8.699c-.236-3.071-.34-6.139-.444-9.184l3.467.09z" fill="#19BDC2"/><path d="M227.738 74.926c-.888-.04-1.729.168-2.268.113-.17.034-.112.38-.001.444.485.277 1.502.564 2.617.852.527.094.771-.037.795-.289.042-.439-.066-.84-.162-1.16l-.981.04z" fill="#FAAF1E"/><path d="M227.721 74.708c-.888-.04-1.674.316-2.213.261-.17.035-.168.231-.056.295.484.277 1.502.564 2.617.853.527.094.771-.038.795-.29.042-.439-.066-.84-.162-1.16l-.981.04z" fill="#FAAD17"/><path d="M230.59 56.768c-.316 1.588-.661 3.05-.951 4.55a65.714 65.714 0 00-.733 4.49c-.362 2.856-.477 5.742-.177 8.601a.473.473 0 01-.381.517l-.388.073a.482.482 0 01-.559-.364c-.665-2.943-.898-5.975-.872-8.98.012-1.582.091-3.16.213-4.728.114-1.562.294-3.145.41-4.616l3.438.457z" fill="#19BDC2"/><path d="M227.196 56.814c-.041-.228-.067-1.562-.067-1.562 0-.756 1.203-1.189 3.802-1.49.828-.096 2.47-.345 2.543.425.259 2.747-.716 3-2.657 3.611-1.985.626-3.471.64-3.621-.984z" fill="#19BDC2"/><path d="M229.911 42.724c-.236-.078-.315-.315-.297-.802.011-.3-.048-1.144.087-1.393.151-.278.788-.972 1-.706.051.51.08.898.102 1.088.066.559.114.893.116 1.125.004.551-.684.795-1.008.688z" fill="#FEE8BE"/><path d="M231.057 40.263c.915-.624 1.147-2.353.396-3.17-.678-.736-2.259-.665-3.003.484-.518.802-.505 3.307.527 3.734.553.23 1.908-.495 2.08-1.048z" fill="#FEE8BE"/><path d="M228.724 38.09c-.056.454.051.902.159 1.348.294-.243.685-.44.721-.115.065.589-.999.89-.22 1.418.282.191 1.406.569 1.5.33.445-1.124 1.488-1.92 1.069-3.611-.171-.69-2.72-.864-3.229.63z" fill="#FAAD17"/><path d="M231.719 37.27c.095-.606-.583-1.167-1.174-1.224-.473-.045-1.575.3-2.002.469-.661-.103-.928.073-.882.523.088.855 1.297 1.697 2.865 1.363l1.193-1.13z" fill="#FAAD17"/><path d="M235.009 55.875c.129-.157.367-.117.568-.086.201.032.356.054.43.243.1.255.177.694.255.987-.067.386-1.084.577-1.241.251-.237-.489-.192-1.174-.012-1.395z" fill="#FEE8BE"/><path d="M234.878 58.66a3.628 3.628 0 00.01-1.772.236.236 0 11.459-.115l.004.025a3.98 3.98 0 01-.208 1.946.139.139 0 01-.265-.084z" fill="#FEE8BE"/><path d="M235.269 58.85a3.42 3.42 0 00.123-1.05c-.01-.352-.06-.713-.187-1.006l-.002-.005a.237.237 0 01.123-.31.237.237 0 01.319.144c.132.405.143.797.123 1.185a3.731 3.731 0 01-.238 1.137.138.138 0 01-.18.078.138.138 0 01-.082-.168l.001-.004z" fill="#FEE8BE"/><path d="M235.811 58.438c.045-.575-.113-1.186-.455-1.594l-.004-.004a.237.237 0 01.363-.304l.016.022c.388.59.467 1.28.355 1.919a.14.14 0 01-.276-.034l.001-.005z" fill="#FEE8BE"/><path d="M236.216 57.91c.024-.193-.004-.361-.102-.494-.098-.135-.256-.257-.421-.383h-.003a.238.238 0 11.316-.353c.148.156.315.319.433.55.125.236.115.52.048.738a.139.139 0 01-.271-.058zm-1.798-.25a2.61 2.61 0 01.017-.877c.062-.294.185-.616.478-.864l.024-.02a.34.34 0 11.363.568c-.148.069-.29.247-.381.462a2.174 2.174 0 00-.164.714v.004a.17.17 0 01-.337.012z" fill="#FEE8BE"/><path d="M233.726 42.33l2.471 6.415.026.071c.034.087.047.18.044.266l-.283 6.614a.518.518 0 01-1.033.017l-.504-6.6.071.337-2.848-6.258a1.116 1.116 0 012.03-.924l.026.062z" fill="#FCCF76"/><path d="M227.129 45.119c-.068-.892.57-1.971 1.35-2.41 1.585-.888 3.721-1.629 4.444-1.084.44.3 1.158 1.65 1.159 3.253.003 2.686-.025 4.883-.278 7.987-.05.616-.006 1.334-.383 1.824-.329.428-3.258 1.309-4.046 1.376-1.804.121-2.223-.598-2.246-1.389-.022-.719.267-6.029 0-9.557z" fill="#FCCF76"/><path d="M219.868 45.306c.132.255.23.53.272.833.039.297.03.643-.165.973l-.015.027a.34.34 0 11-.532-.416c.118-.114.193-.329.209-.562a2.16 2.16 0 00-.082-.729v-.003a.169.169 0 01.313-.123z" fill="#FEE8BE"/><path d="M218.769 44.62c.167.58.48 1.112.893 1.53a.236.236 0 11-.337.332l-.017-.018a3.995 3.995 0 01-.81-1.782.14.14 0 01.113-.161.14.14 0 01.158.099z" fill="#FEE8BE"/><path d="M218.785 45.279c-.082.099-.175.197-.195.266-.02.058.002.1.064.188.133.161.333.315.534.457a.237.237 0 01-.271.389l-.026-.022c-.194-.181-.388-.36-.551-.617-.078-.118-.151-.355-.046-.532.092-.164.202-.232.289-.32a.14.14 0 01.206.186l-.004.005z" fill="#FEE8BE"/><path d="M218.487 45.697c-.078.04-.13.097-.123.128-.003.026.018.081.072.142.106.12.277.217.448.285a.236.236 0 01.135.306.236.236 0 01-.306.136c-.012-.004-.026-.012-.037-.018-.206-.124-.4-.267-.546-.493-.068-.109-.14-.27-.079-.453.066-.181.217-.249.33-.29a.138.138 0 01.178.082.138.138 0 01-.065.171l-.007.004z" fill="#FEE8BE"/><path d="M218.299 46.048c-.044.04-.074.103-.05.074.004-.037.016-.001.064.033.089.07.207.144.324.215a.238.238 0 11-.292.372c-.103-.103-.204-.202-.308-.333-.042-.067-.132-.151-.111-.333.047-.17.143-.2.201-.247a.138.138 0 01.195.02.14.14 0 01-.015.192l-.008.007z" fill="#FEE8BE"/><path d="M220.058 46.96c-.001.202-.469.542-.666.496a1.996 1.996 0 01-1.006-.632c-.191-.342.461-1.099.788-.944.491.232.887.794.884 1.08z" fill="#FEE8BE"/><path d="M229.235 45.057l-4.167 5.47-.057.074a.84.84 0 01-1.156.173l-4.225-3.031a.518.518 0 01.538-.884l4.633 2.36-1.213.248 3.833-5.707a1.115 1.115 0 111.853 1.244l-.039.053z" fill="#FCCF76"/><path d="M141.29 27.014c-.01.008-.174.091-.185.098-.256.16-.813.144-1.359.069a4.317 4.317 0 01-.951-.253c-.225-.094-.678-.745-.406-.953.041-.03.204-.134.282-.141.268-.027.518.156.773.123.638-.083 1.114-.278 1.464-.062.451.277.622.936.382 1.119z" fill="#FAAD17"/><path d="M140.679 23.952l4.839 4.501a.69.69 0 001.003-.946l-3.976-4.794a.758.758 0 00-.775-.25l-.767.2a.758.758 0 00-.324 1.29z" fill="#FBBA3C"/><path d="M143.287 24.027l6.075-2.861.012-.04-1.665-2.972a.028.028 0 00-.039-.01l-6.75 4.386-.119.077a.107.107 0 00-.016.01c-.697.47-.28 1.58.56 1.55l1.604-.058a.86.86 0 00.338-.082z" fill="#FBBA3C"/><path d="M141.101 27.06c-.29.065-.697.064-1.093.01a4.317 4.317 0 01-.951-.253c-.26-.108-.821-.955-.23-1.013.269-.026.624.075.879.042.637-.083 1.22-.344 1.57-.128.211.13.419.662.419.887.001.25-.466.426-.594.455z" fill="#FBC356"/><path d="M147.551 24.932l-6.463.688a.69.69 0 00.059 1.375l6.498.136a1.103 1.103 0 10-.094-2.199z" fill="#FBBA3C"/><path d="M146.885 26.77a1.29 1.29 0 001.681-.063l4.697-4.354a.45.45 0 00.009-.658l-1.804-1.733a.448.448 0 00-.656.037l-4.114 4.936a1.29 1.29 0 00.187 1.835z" fill="#FBBA3C"/><path d="M153.697 21.34c.041-.227.067-1.561.067-1.561 0-.757-1.203-1.19-3.802-1.49-.829-.096-2.47-.345-2.543.424-.26 2.747.716 3 2.657 3.612 1.985.626 3.471.64 3.621-.984z" fill="#FBBA3C"/><path d="M140.063 20.026l6.393 3.728 4.115-2.376-6.393-3.727-4.115 2.375z" fill="#fff"/><path d="M140.063 20.026l6.393 3.728-3.39-3.5-6.393-3.727 3.39 3.5z" fill="#FCCF76"/><path d="M146.272 8.245l-.189 6.265.122-.401-1.867 3.982a.52.52 0 00.893.52l2.546-3.585a.61.61 0 00.113-.3l.01-.102.598-6.24a1.117 1.117 0 00-2.221-.212c-.003.023-.004.05-.005.073z" fill="#FEE8BE"/><path d="M145.889 8.33a1.423 1.423 0 112.843 0l-.096 2.387-2.655-.1-.092-2.286z" fill="#FDDDA0"/><path d="M145.981 19.274c.002-.21.005-.445-.123-.698-.134-.255-.359-.402-.534-.524a.339.339 0 10-.3.6c.18.06.326.114.413.203.096.088.161.267.208.454l.002.005a.169.169 0 00.206.123.169.169 0 00.128-.163z" fill="#FEE8BE"/><path d="M144.874 17.865c.199.042.435.111.513.298.079.188-.12.595-.329.815-.363.147-1.559-.065-1.365-.37.291-.458.644-.86 1.181-.743z" fill="#FEE8BE"/><path d="M144.186 19.856c.022-.199.042-.403.094-.57.048-.167.138-.259.289-.387a.237.237 0 10-.328-.341l-.007.008c-.141.151-.302.402-.322.643-.029.23-.013.435-.004.642a.14.14 0 00.146.132.141.141 0 00.132-.127z" fill="#FEE8BE"/><path d="M143.786 19.662c.049-.194.097-.393.17-.552.071-.158.173-.238.339-.344a.237.237 0 10-.255-.399c-.007.005-.015.01-.022.017l-.008.007c-.16.13-.354.357-.407.592-.06.226-.072.43-.091.635a.14.14 0 00.126.152.142.142 0 00.148-.108z" fill="#FEE8BE"/><path d="M143.387 19.157c.08-.182.18-.361.304-.447.112-.087.286-.092.514-.127h.003a.236.236 0 00.198-.27.236.236 0 00-.305-.19c-.095.03-.199.056-.317.097a.91.91 0 00-.341.208c-.193.201-.259.429-.319.64a.138.138 0 00.095.17.139.139 0 00.166-.076l.002-.005zm1.538.776c-.018-.35.022-.68.151-.976a.238.238 0 10-.449-.149l-.003.01c-.09.39-.06.795.026 1.154a.14.14 0 00.168.104.139.139 0 00.107-.143z" fill="#FEE8BE"/><path d="M153.288 9.252c-1.216-1.783-5.455-2.814-6.375-2.196-.424.256-.482 1.234-.549 2.725-.165 2.493 1.235 5.044 1.19 7.542-.01.575-.364 1.032-.04 1.506.284.414 3.169 1.703 3.897 1.806 1.67.204 2.493-.63 2.46-1.366.384-3.783.307-6.276-.583-10.017z" fill="#FDDDA0"/><path d="M148.02 7.69c1.603-.843 2.888-.109 2.94.354l-2.165 2.4-.775-2.754z" fill="#FAAD17"/><path d="M149.182 8.563c-.248-.023-.379-.236-.472-.715-.055-.295-.303-1.103-.23-1.376.085-.305.549-1.125.815-.914.166.486.281.858.346 1.036.19.53.313.845.367 1.07.129.536-.486.93-.826.899z" fill="#FEE8BE"/><path d="M149.334 5.735c.394-1.036-.404-2.587-1.487-2.828-.977-.217-2.235.745-2.188 2.113.032.954 1.476 3.002 2.566 2.763.585-.127 1.284-1.496 1.109-2.048z" fill="#FEE8BE"/><path d="M149.411 3.305c-.291-.381-.809-.617-1.244-.404-.269-.553-1.146-.625-1.662-.334-.416.233-1.124 1.145-1.376 1.53a1.376 1.376 0 01-.122.133c-.326.313-.402.847-.107 1.19.56.65 1.839.26 2.934-.91.213.404.556.71.899 1.015.103-.367.284-.568.558-.39.252.536-.342 1.184.598 1.173.342-.005.342-.337.283-.588-.278-1.175-.384-1.922-.761-2.415z" fill="#171A1F"/><path d="M147.182 19.867c.274.031.54.04.776.085a.96.96 0 01.3.097c.077.045.109.091.125.141a.342.342 0 10.609-.297l-.038-.054a.898.898 0 00-.486-.339 1.563 1.563 0 00-.474-.052c-.291.01-.552.058-.806.081a.17.17 0 00-.006.338z" fill="#FEE8BE"/><path d="M149.111 19.968c.137.15.29.342.245.54-.045.199-.267.315-.461.377-.261.083-.696.159-.995.216-.381-.09-.517-1.078-.182-1.214.504-.203 1.023-.326 1.393.08z" fill="#FEE8BE"/><path d="M146.454 20.68a2.188 2.188 0 011.663-.43.237.237 0 00.073-.467l-.023-.004h-.007a2.57 2.57 0 00-1.886.688.14.14 0 00-.007.197.142.142 0 00.187.015z" fill="#FEE8BE"/><path d="M146.474 21.188c.215-.245.506-.434.807-.567.295-.132.644-.21.883-.137l.01.002a.237.237 0 10.108-.46c-.466-.078-.834.085-1.168.258a2.68 2.68 0 00-.859.731.14.14 0 00.215.176l.004-.003z" fill="#FEE8BE"/><path d="M146.894 21.396c.359-.44.833-.732 1.363-.763a.236.236 0 10-.057-.469l-.011.002c-.315.06-.627.19-.885.38-.259.19-.464.432-.633.684a.14.14 0 00.037.194.14.14 0 00.186-.028z" fill="#FEE8BE"/><path d="M147.197 21.495a1.631 1.631 0 011.014-.447.237.237 0 10-.075-.467l-.008.002a2.17 2.17 0 00-.636.266 2.132 2.132 0 00-.496.454.14.14 0 00.016.196.141.141 0 00.185-.004zm4.279-11.093l2.322 6.139.344-1.045-5.227 4.08a.517.517 0 00.586.852l5.675-3.433a.842.842 0 00.368-.967l-.024-.078-1.934-6.272a1.116 1.116 0 10-2.11.724z" fill="#FEE8BE"/><path d="M151.154 10.722a1.423 1.423 0 112.69-.923l.815 2.726-2.433.959-1.072-2.762z" fill="#FDDDA0"/><path d="M145.677 28.029l.555-.275a.39.39 0 01.475.104l.529.657-1.939 2.46c-.237-.153-.371-.34-.229-.613 0 0 .334-.799.338-.902l.055-1.102a.39.39 0 01.216-.33z" fill="#FBC356"/><path d="M145.297 30.975l-.066-.153 1.514-1.877.491-.43v.36l-.491.545-1.185 1.49-.263.065z" fill="#FAAD17"/><path d="M207.014 59.73c.167.172.642.144.878.186.737.129 1.196.657 1.943.657.304 0 .392-.632.135-.799-.324-.209-1.319-.725-1.718-1.013-.124-.023-1.096-.155-1.165-.14-.166.035-.23.947-.073 1.109z" fill="#FBC356"/><path d="M207.068 59.417c.161.166.619.14.847.179.71.125 1.153.634 1.873.634.293 0 .378-.61.129-.77-.312-.202-1.27-.7-1.655-.977-.12-.023-.988-.298-1.05-.272-.377.16-.295 1.05-.144 1.206z" fill="#FAAD17"/><path d="M204.576 61.717c-.003.012-.016.196-.018.21-.049.297.185.803.467 1.276.193.323.455.63.605.777.174.17.951.333 1.036.002.012-.051.043-.24.02-.315-.081-.258-.347-.416-.416-.665-.173-.618-.18-1.133-.515-1.371-.431-.306-1.105-.207-1.179.086z" fill="#FBC356"/><path d="M208.994 40.595c.701 2.964 1.355 6.044 1.405 9.225a19.788 19.788 0 01-.476 4.734 17.893 17.893 0 01-1.454 4.03.452.452 0 01-.593.203l-.407-.188a.446.446 0 01-.23-.56c.443-1.236.738-2.509.872-3.791a17.655 17.655 0 00-.088-4.26c-.387-2.834-1.322-5.602-2.349-8.39l3.32-1.003z" fill="#FCCF76"/><path d="M204.607 61.909c.054.293.213.667.419 1.01.192.323.454.63.604.777.2.196 1.199.382 1.022-.184-.081-.259-.313-.546-.382-.793-.173-.619-.16-1.256-.495-1.495-.203-.143-.774-.127-.982-.04-.229.097-.21.596-.186.725z" fill="#FAAD17"/><path d="M206.362 42.91c.149 3.114.176 6.244.077 9.35-.092 2.963-.277 5.904-.475 8.839a.45.45 0 01-.454.42l-.447-.005a.447.447 0 01-.443-.427c-.149-2.932-.309-5.86-.562-8.762a115.147 115.147 0 00-1.144-9.054l3.448-.361z" fill="#FCCF76"/><path d="M202.845 43.365c-.041-.228-.068-1.562-.068-1.562 0-.756 1.204-1.188 3.803-1.49.828-.096 2.47-.345 2.542.425.26 2.747-.715 3-2.656 3.611-1.986.626-3.471.64-3.621-.984z" fill="#FCCF76"/><path d="M208.564 29.768l2.805 5.857.068.14a.72.72 0 01-1.159.819l-1.032-1.04a.523.523 0 01.612-.833l1.3.673-1.092.959-3.455-5.498a1.117 1.117 0 111.953-1.077z" fill="#FAAD17"/><path d="M201.547 31.276c1.217-1.783 5.456-2.814 6.376-2.196.423.256 1.05 1.23 1.117 2.72.165 2.493-.097 5.05-.053 7.548.01.575.365 1.032.04 1.506-.284.414-3.146 1.589-3.874 1.692-1.67.204-2.514-.516-2.483-1.252.167-3.788-2.012-6.277-1.123-10.018z" fill="#FAAD17"/><path d="M208.98 35.803c.1.177.342.177.545.18.203.003.36.008.465-.167.141-.233.291-.653.416-.93 0-.391-.97-.75-1.179-.456-.316.442-.389 1.125-.247 1.373z" fill="#FEE8BE"/><path d="M210.099 33.222a3.619 3.619 0 00-.533 1.69.237.237 0 01-.473-.026l.003-.025a3.99 3.99 0 01.774-1.797.14.14 0 01.196-.026.14.14 0 01.033.184z" fill="#FEE8BE"/><path d="M210.447 34.26c-.127-.02-.26-.05-.329-.032-.06.013-.086.053-.129.152-.071.197-.1.448-.12.692a.236.236 0 11-.467-.067c.057-.259.112-.518.249-.79.061-.125.227-.31.433-.311.188-.006.303.055.425.086a.138.138 0 01.1.168.138.138 0 01-.156.103h-.006z" fill="#FEE8BE"/><path d="M210.669 34.695a1.255 1.255 0 00-.279-.05c-.088-.003-.14.021-.167.052-.064.071-.107.287-.133.486a.237.237 0 01-.47-.06 3.18 3.18 0 01.121-.369.832.832 0 01.245-.347.565.565 0 01.441-.087c.128.024.235.069.339.114a.14.14 0 01-.091.262l-.006-.001z" fill="#FEE8BE"/><path d="M210.512 35.022c-.074-.06-.157-.18-.153-.16.004.018.073.027.087.023.027-.01.015-.001.014.003l-.05.072a6.343 6.343 0 00-.228.407.237.237 0 11-.394-.258c.105-.129.207-.257.332-.387.035-.034.067-.067.117-.105.031-.02.05-.04.118-.058.052-.023.165.003.201.043.12.134.103.169.149.22a.138.138 0 01-.01.197.138.138 0 01-.18.005l-.003-.002zm-1.468-1.074c-.026.25-.015.504.04.733.054.227.164.426.298.52a.34.34 0 11-.453.5l-.021-.026c-.246-.293-.313-.633-.324-.933a2.587 2.587 0 01.13-.866.17.17 0 01.33.07v.002z" fill="#FEE8BE"/><path d="M206.803 29.309l-.675-.327a9.977 9.977 0 00-1.879.5l-.296.631 2.511 2.037.339-2.841z" fill="#fff"/><path d="M205.79 30.35c.241-.06.338-.29.355-.778.01-.3.13-1.137.014-1.395-.13-.289-.715-1.027-.946-.776-.087.505-.145.89-.181 1.076-.105.553-.178.883-.197 1.114-.044.55.624.842.955.76z" fill="#FEE8BE"/><path d="M205.202 27.58c-.55-.961-.001-2.617 1.031-3.023.931-.366 2.324.39 2.489 1.75.115.947-.994 3.193-2.107 3.126-.598-.036-1.501-1.28-1.413-1.853z" fill="#FEE8BE"/><path d="M204.75 25.192c.228-.422.704-.734 1.167-.592.18-.587 1.035-.795 1.591-.587.445.166 1.286.958 1.595 1.297.044.041.092.08.141.114.371.259.529.774.29 1.158-.453.73-1.776.543-3.04-.444-.147.432-.439.788-.731 1.142-.159-.347-.367-.516-.612-.299-.166.57.522 1.117-.409 1.251-.337.049-.389-.28-.369-.537.092-1.203.081-1.958.377-2.503z" fill="#FAAD17"/><path d="M207.575 37.704a2.159 2.159 0 00-.703.21c-.209.105-.377.258-.436.41a.34.34 0 11-.592-.324l.02-.026c.228-.308.542-.452.832-.532.294-.08.586-.097.872-.075a.169.169 0 01.156.18.168.168 0 01-.146.156l-.003.001z" fill="#FEE8BE"/><path d="M208.927 39.324l-1.982.479c-.17.041-.285-.055-.255-.216l.613-3.293a.517.517 0 01.365-.366l1.981-.48c.172-.04.286.056.256.216l-.614 3.294a.513.513 0 01-.364.366z" fill="#19BDC2"/><path d="M205.826 38.073c-.148.139-.093.374-.048.572.044.198.077.352.271.414.26.083.703.131 1.001.188.381-.09.504-1.118.169-1.254-.502-.204-1.185-.115-1.393.08z" fill="#FEE8BE"/><path d="M208.698 38.02a3.995 3.995 0 01-1.928.335.237.237 0 01-.219-.253.235.235 0 01.277-.216 3.62 3.62 0 001.768-.125.14.14 0 01.177.087.14.14 0 01-.075.171z" fill="#FEE8BE"/><path d="M208.736 38.407a3.368 3.368 0 01-1.025.304 2.85 2.85 0 01-1.097-.052.237.237 0 11.138-.452l.004.002c.567.2 1.267.163 1.868-.057a.14.14 0 01.18.08.142.142 0 01-.068.175z" fill="#FEE8BE"/><path d="M208.399 38.917c-.576.152-1.256.178-1.845-.168l-.004-.003a.237.237 0 01.242-.408l.024.017c.399.307.976.374 1.526.29a.139.139 0 01.057.272z" fill="#FEE8BE"/><path d="M208.171 39.28c-.23.081-.491.129-.76.087a1.412 1.412 0 01-.716-.353l-.011-.009a.237.237 0 11.343-.325c.247.311.64.43 1.068.332a.14.14 0 01.168.105.142.142 0 01-.092.162z" fill="#FEE8BE"/><path d="M203.356 32.62l-3.082 6.146-.806-1.294 6.199.523a.519.519 0 01-.022 1.034l-6.215.263a.872.872 0 01-.841-1.213l.035-.08 2.71-6.32a1.115 1.115 0 012.051.88.836.836 0 01-.029.06z" fill="#FAAD17"/><path d="M220.79 29.018l-3.171 6.203-.033.065a.733.733 0 01-1.373-.208l-.875-5.037a.519.519 0 011.01-.222l1.318 4.94-1.406-.144 2.493-6.504a1.117 1.117 0 112.037.907z" fill="#FDD78D"/><path d="M220.168 58.797c-.167.172-.642.145-.879.186-.736.13-1.195.658-1.942.658-.304 0-.392-.633-.135-.8.324-.208 1.318-.724 1.718-1.012.124-.024 1.096-.155 1.165-.14.165.035.229.946.073 1.108z" fill="#FAAD17"/><path d="M220.114 58.485c-.161.166-.62.14-.848.179-.71.125-1.152.634-1.873.634-.292 0-.377-.61-.129-.77.312-.202 1.27-.7 1.655-.977.121-.023 1.059-.15 1.125-.135.159.034.221.913.07 1.069z" fill="#FDDC9B"/><path d="M223.921 59.975c.003.012.015.195.018.209.048.297-.185.804-.468 1.277-.192.323-.455.63-.604.777-.174.17-.951.333-1.036.001-.013-.05-.043-.24-.02-.314.081-.258.346-.416.416-.664.173-.619.18-1.135.515-1.373.431-.305 1.104-.206 1.179.087z" fill="#FAAD17"/><path d="M221.715 39.742c-.841 2.848-1.433 5.74-1.652 8.704-.224 2.964-.105 5.996.093 9.038l-1.285.161c-.558-3.018-1.052-6.083-1.189-9.234-.142-3.148.123-6.341.654-9.446l3.379.777z" fill="#FDDDA0"/><path d="M223.89 60.166c-.054.293-.214.667-.419 1.011-.192.322-.455.63-.604.776-.2.197-1.199.383-1.022-.184.08-.258.312-.544.382-.793.173-.618.16-1.256.495-1.494.202-.143.775-.127.981-.04.23.097.21.596.187.724z" fill="#FDDC9B"/><path d="M224.455 41.356a388.18 388.18 0 00-.451 9.182c-.109 3.065-.186 6.13-.149 9.188l-1.291.096c-.402-3.073-.687-6.151-.94-9.23a387.965 387.965 0 01-.637-9.252l3.468.016z" fill="#FDDDA0"/><path d="M224.514 41.623c.042-.228.068-1.562.068-1.562 0-.757-1.204-1.189-3.802-1.49-.829-.096-2.471-.346-2.543.424-.26 2.748.716 3 2.656 3.613 1.985.625 3.472.64 3.621-.985z" fill="#FDDDA0"/><path d="M225.812 29.534c-1.216-1.783-5.455-2.814-6.375-2.196-.424.256-1.05 1.23-1.118 2.72-.165 2.493.097 5.05.053 7.547-.011.575-.364 1.032-.04 1.507.285.414 3.146 1.589 3.874 1.692 1.67.204 2.515-.516 2.483-1.252-.167-3.79 2.012-6.277 1.123-10.018z" fill="#FDD78D"/><path d="M221.569 28.608c-.241-.06-.337-.291-.355-.778-.01-.3-.13-1.138-.014-1.395.13-.29.715-1.027.946-.777.088.505.145.89.181 1.077.106.552.179.882.198 1.114.044.55-.625.842-.956.76z" fill="#FEE8BE"/><path d="M222.426 27.227c.212.224.335.419.483.672.194.33-.144 1.324-.706 1.908-.544-.31-.87-.961-.691-1.418.53-.017 1.012-.61.914-1.162z" fill="#fff"/><path d="M221.512 28.389l.057.28c-.42.377-.918.438-1.283.438.159-.337.424-1.075.904-1.61.024.333.006.787.322.892z" fill="#fff"/><path d="M222.373 25.932c.891-.66 1.054-2.395.272-3.183-.706-.71-2.283-.576-2.982.6-.487.823-.375 3.325.672 3.711.562.208 1.889-.569 2.038-1.128z" fill="#FEE8BE"/><path d="M223.748 23.927c-.039-.478-.349-.954-.83-1.01.071-.61-.629-1.144-1.22-1.178-.475-.027-1.563.36-1.984.546-.056.02-.116.036-.174.047-.444.088-.795.497-.731.945.121.85 1.408 1.21 2.961.815-.038.456.086.899.211 1.34.285-.254.544-.325.679-.028-.076.588-.926.814-.128 1.31.29.18.47-.1.555-.343.399-1.139.713-1.825.661-2.444z" fill="#FAAD17"/><path d="M226.08 30.38l-.067 6.874v.091a.896.896 0 01-1.714.354l-2.229-5.041a.518.518 0 01.913-.485l2.924 4.672-1.714.445-.342-6.866a1.116 1.116 0 112.229-.045z" fill="#FDD78D"/><path d="M221.951 32.611c.073.19.312.226.512.26.201.032.356.06.485-.096.175-.21.385-.603.551-.858.058-.387-.848-.887-1.1-.627-.378.39-.55 1.055-.448 1.321z" fill="#FEE8BE"/><path d="M222.977 29.928a3.99 3.99 0 01-.412 1.914.236.236 0 11-.412-.23 3.602 3.602 0 00.546-1.686.14.14 0 01.148-.13.14.14 0 01.13.133z" fill="#FEE8BE"/><path d="M223.409 29.86c.021.395-.035.779-.132 1.154-.103.374-.235.742-.488 1.086a.236.236 0 11-.381-.279l.014-.018.003-.003c.212-.238.374-.566.494-.897a3.41 3.41 0 00.211-1.036v-.004a.14.14 0 01.144-.135.14.14 0 01.135.132z" fill="#FEE8BE"/><path d="M223.789 30.478c-.094.642-.386 1.272-.938 1.711a.237.237 0 11-.273-.386l.005-.002c.454-.282.795-.813.933-1.372v-.004a.139.139 0 01.273.054z" fill="#FEE8BE"/><path d="M224.011 31.087c-.005.227-.085.5-.277.686-.185.183-.395.285-.584.386a.237.237 0 11-.19-.432l.004-.002c.197-.067.385-.133.519-.231.136-.095.214-.246.252-.437a.14.14 0 01.276.03zm-1.747-.235a2.13 2.13 0 00-.068.73c.019.234.098.446.216.558a.34.34 0 11-.522.427l-.018-.028c-.198-.327-.215-.672-.181-.97a2.6 2.6 0 01.258-.838.17.17 0 01.227-.076.17.17 0 01.089.194l-.001.003zm-6.1-1.094c-.1.176-.341.177-.545.18-.203.003-.359.007-.465-.167-.141-.234-.291-.653-.417-.93 0-.392.971-.75 1.181-.457.315.442.387 1.126.246 1.374z" fill="#FEE8BE"/><path d="M215.274 27.018c.397.517.668 1.138.773 1.797a.235.235 0 01-.193.272.236.236 0 01-.272-.194c-.002-.008-.002-.018-.003-.026a3.622 3.622 0 00-.534-1.69.139.139 0 01.045-.192.141.141 0 01.184.033z" fill="#FEE8BE"/><path d="M214.602 27.154c.281.224.519.494.716.794.193.302.352.636.425 1.013a.236.236 0 01-.465.089l-.003-.02v-.004c-.063-.598-.398-1.214-.855-1.662a.14.14 0 01-.005-.196.141.141 0 01.187-.014z" fill="#FEE8BE"/><path d="M214.314 27.63c.518.292 1.024.75 1.201 1.407l.001.006a.237.237 0 01-.456.123c-.003-.009-.004-.02-.005-.028-.072-.5-.438-.95-.891-1.275a.139.139 0 01.15-.234z" fill="#FEE8BE"/><path d="M214.167 28.235c.243.026.498.096.722.251.225.152.392.387.493.628l.006.014a.238.238 0 01-.439.183l-.013-.04c-.087-.387-.388-.665-.817-.763a.14.14 0 01-.105-.166.142.142 0 01.153-.107zm2.263-.405c.088.274.138.562.13.867-.01.3-.078.639-.324.932l-.02.024a.34.34 0 11-.454-.498c.134-.093.244-.292.298-.52a2.17 2.17 0 00.04-.732V27.9a.17.17 0 01.33-.07z" fill="#FEE8BE"/><defs><linearGradient id="paint0_linear" x1="72.895" y1="144.241" x2="72.895" y2="208.918" gradientUnits="userSpaceOnUse"><stop stop-color="#B0B2B5"/><stop offset=".849" stop-color="#E4F1FF"/><stop offset="1" stop-color="#E4F1FF"/></linearGradient><linearGradient id="paint1_linear" x1="196.98" y1="156.102" x2="196.98" y2="230.375" gradientUnits="userSpaceOnUse"><stop stop-color="#B0B2B5"/><stop offset=".849" stop-color="#F8F9FA"/><stop offset="1" stop-color="#F8F9FA"/></linearGradient><linearGradient id="paint3_linear" x1="106.047" y1="90.154" x2="106.047" y2="151.901" gradientUnits="userSpaceOnUse"><stop stop-color="#B0B2B5"/><stop offset=".849" stop-color="#E4F1FF"/><stop offset="1" stop-color="#E4F1FF"/></linearGradient><linearGradient id="paint4_linear" x1="208.73" y1="108.235" x2="208.73" y2="130.629" gradientUnits="userSpaceOnUse"><stop stop-color="#1ABDC2"/><stop offset=".849" stop-color="#E4F1FF"/><stop offset="1" stop-color="#E4F1FF"/></linearGradient><linearGradient id="paint5_linear" x1="135.212" y1="53.878" x2="135.212" y2="115.626" gradientUnits="userSpaceOnUse"><stop stop-color="#B0B2B5"/><stop offset=".849" stop-color="#E4F1FF"/><stop offset="1" stop-color="#E4F1FF"/></linearGradient><linearGradient id="paint6_linear" x1="149.888" y1="179.611" x2="149.888" y2="202.005" gradientUnits="userSpaceOnUse"><stop stop-color="#FAAD17"/><stop offset=".849" stop-color="#E4F1FF"/><stop offset="1" stop-color="#E4F1FF"/></linearGradient><linearGradient id="paint7_linear" x1="164.378" y1="17.603" x2="164.378" y2="79.35" gradientUnits="userSpaceOnUse"><stop stop-color="#B0B2B5"/><stop offset=".849" stop-color="#E4F1FF"/><stop offset="1" stop-color="#E4F1FF"/></linearGradient><linearGradient id="paint8_linear" x1="237.292" y1="71.174" x2="237.292" y2="93.568" gradientUnits="userSpaceOnUse"><stop stop-color="#134E7A"/><stop offset=".849" stop-color="#E4F1FF"/><stop offset="1" stop-color="#E4F1FF"/></linearGradient><linearGradient id="paint9_linear" x1="179.092" y1="144.113" x2="179.092" y2="166.507" gradientUnits="userSpaceOnUse"><stop stop-color="#134E7A"/><stop offset=".849" stop-color="#E4F1FF"/><stop offset="1" stop-color="#E4F1FF"/></linearGradient><linearGradient id="paint11_linear" x1="76.743" y1="126.164" x2="76.743" y2="187.911" gradientUnits="userSpaceOnUse"><stop stop-color="#B0B2B5"/><stop offset=".849" stop-color="#E4F1FF"/><stop offset="1" stop-color="#E4F1FF"/></linearGradient><linearGradient id="paint12_linear" x1="237.292" y1="71.244" x2="237.292" y2="93.638" gradientUnits="userSpaceOnUse"><stop stop-color="#AC63FF"/><stop offset=".849" stop-color="#E4F1FF"/><stop offset="1" stop-color="#E4F1FF"/></linearGradient><linearGradient id="paint13_linear" x1="60.334" y1="52.019" x2="60.334" y2="84.287" gradientUnits="userSpaceOnUse"><stop stop-color="#CCC"/><stop offset=".849" stop-color="#E4F1FF"/><stop offset="1" stop-color="#E4F1FF"/></linearGradient><linearGradient id="paint14_linear" x1="82.612" y1="57.936" x2="82.612" y2="94.992" gradientUnits="userSpaceOnUse"><stop stop-color="#B0B2B5"/><stop offset=".849" stop-color="#E4F1FF"/><stop offset="1" stop-color="#E4F1FF"/></linearGradient><linearGradient id="paint15_linear" x1="82.612" y1="79.424" x2="82.612" y2="62.482" gradientUnits="userSpaceOnUse"><stop stop-color="#E6E6E6"/><stop offset=".825" stop-color="#114A76"/><stop offset="1" stop-color="#114A76"/></linearGradient><linearGradient id="paint16_linear" x1="94.24" y1="87.598" x2="94.24" y2="70.656" gradientUnits="userSpaceOnUse"><stop stop-color="#B0B2B5"/><stop offset=".849" stop-color="#E4F1FF"/><stop offset="1" stop-color="#E4F1FF"/></linearGradient><linearGradient id="paint17_linear" x1="107.811" y1="95.096" x2="107.811" y2="78.154" gradientUnits="userSpaceOnUse"><stop stop-color="#B0B2B5"/><stop offset=".849" stop-color="#E4F1FF"/><stop offset="1" stop-color="#E4F1FF"/></linearGradient><linearGradient id="paint18_linear" x1="121.382" y1="102.65" x2="121.382" y2="85.707" gradientUnits="userSpaceOnUse"><stop stop-color="#B0B2B5"/><stop offset=".849" stop-color="#E4F1FF"/><stop offset="1" stop-color="#E4F1FF"/></linearGradient><linearGradient id="paint19_linear" x1="134.851" y1="111.281" x2="134.851" y2="94.338" gradientUnits="userSpaceOnUse"><stop stop-color="#B0B2B5"/><stop offset=".849" stop-color="#E4F1FF"/><stop offset="1" stop-color="#E4F1FF"/></linearGradient><linearGradient id="paint20_linear" x1="148.183" y1="118.884" x2="148.183" y2="101.942" gradientUnits="userSpaceOnUse"><stop stop-color="#B0B2B5"/><stop offset=".849" stop-color="#E4F1FF"/><stop offset="1" stop-color="#E4F1FF"/></linearGradient><linearGradient id="paint21_linear" x1="161.606" y1="110.49" x2="161.606" y2="142.759" gradientUnits="userSpaceOnUse"><stop stop-color="#CCC"/><stop offset=".849" stop-color="#E4F1FF"/><stop offset="1" stop-color="#E4F1FF"/></linearGradient><linearGradient id="paint22_linear" x1="183.884" y1="116.408" x2="183.884" y2="153.464" gradientUnits="userSpaceOnUse"><stop stop-color="#B0B2B5"/><stop offset=".849" stop-color="#E4F1FF"/><stop offset="1" stop-color="#E4F1FF"/></linearGradient><linearGradient id="paint23_linear" x1="183.884" y1="137.053" x2="183.884" y2="120.111" gradientUnits="userSpaceOnUse"><stop stop-color="#E6E6E6"/><stop offset=".825" stop-color="#114974"/><stop offset="1" stop-color="#114974"/><stop offset="1" stop-color="#114974"/></linearGradient><linearGradient id="paint24_linear" x1="85.076" y1="100.001" x2="85.076" y2="111.565" gradientUnits="userSpaceOnUse"><stop stop-color="#B0B2B5"/><stop offset=".849" stop-color="#E4F1FF"/><stop offset="1" stop-color="#E4F1FF"/></linearGradient><linearGradient id="paint25_linear" x1="113.794" y1="109.476" x2="113.794" y2="121.041" gradientUnits="userSpaceOnUse"><stop stop-color="#B0B2B5"/><stop offset=".849" stop-color="#E4F1FF"/><stop offset="1" stop-color="#E4F1FF"/></linearGradient><linearGradient id="paint26_linear" x1="105.751" y1="102.983" x2="105.751" y2="109.149" gradientUnits="userSpaceOnUse"><stop stop-color="#B0B2B5"/><stop offset=".849" stop-color="#E4F1FF"/><stop offset="1" stop-color="#E4F1FF"/></linearGradient><linearGradient id="paint27_linear" x1="121.35" y1="119.659" x2="121.35" y2="125.286" gradientUnits="userSpaceOnUse"><stop stop-color="#B0B2B5"/><stop offset=".849" stop-color="#E4F1FF"/><stop offset="1" stop-color="#E4F1FF"/></linearGradient><linearGradient id="paint28_linear" x1="138.797" y1="116.75" x2="138.797" y2="118.946" gradientUnits="userSpaceOnUse"><stop stop-color="#B0B2B5"/><stop offset=".849" stop-color="#E4F1FF"/><stop offset="1" stop-color="#E4F1FF"/></linearGradient><linearGradient id="paint29_linear" x1="106.369" y1="99.159" x2="106.369" y2="122.006" gradientUnits="userSpaceOnUse"><stop stop-color="#B0B2B5"/><stop offset=".849" stop-color="#E4F1FF"/><stop offset="1" stop-color="#E4F1FF"/></linearGradient><linearGradient id="paint30_linear" x1="137.773" y1="115.105" x2="137.773" y2="117.879" gradientUnits="userSpaceOnUse"><stop stop-color="#B0B2B5"/><stop offset=".849" stop-color="#E4F1FF"/><stop offset="1" stop-color="#E4F1FF"/></linearGradient><linearGradient id="paint31_linear" x1="137.042" y1="115.542" x2="137.042" y2="120.648" gradientUnits="userSpaceOnUse"><stop stop-color="#B0B2B5"/><stop offset=".849" stop-color="#E4F1FF"/><stop offset="1" stop-color="#E4F1FF"/></linearGradient><linearGradient id="paint32_linear" x1="139.535" y1="117.478" x2="139.535" y2="122.194" gradientUnits="userSpaceOnUse"><stop stop-color="#B0B2B5"/><stop offset=".849" stop-color="#E4F1FF"/><stop offset="1" stop-color="#E4F1FF"/></linearGradient><linearGradient id="paint33_linear" x1="29.895" y1="123.673" x2="54.642" y2="123.673" gradientUnits="userSpaceOnUse"><stop stop-color="#B0B2B5"/><stop offset=".087" stop-color="#B0B2B5"/><stop offset=".5" stop-color="#C1D1FA"/><stop offset="1" stop-color="#B0B2B5"/></linearGradient><linearGradient id="paint34_linear" x1="7.989" y1="119.573" x2="56.546" y2="119.573" gradientUnits="userSpaceOnUse"><stop stop-color="#CEDDFC"/><stop offset=".175" stop-color="#CEDDFC"/><stop offset="1" stop-color="#B0B2B5"/></linearGradient><linearGradient id="paint35_linear" x1="42.328" y1="120.18" x2="42.328" y2="108.27" gradientUnits="userSpaceOnUse"><stop stop-color="#C2DFFF"/><stop offset="1"/></linearGradient><linearGradient id="paint36_linear" x1="29.895" y1="114.191" x2="54.642" y2="114.191" gradientUnits="userSpaceOnUse"><stop stop-color="#B0B2B5"/><stop offset=".087" stop-color="#B0B2B5"/><stop offset=".5" stop-color="#C1D1FA"/><stop offset="1" stop-color="#B0B2B5"/></linearGradient><linearGradient id="paint37_linear" x1="7.989" y1="110.091" x2="56.546" y2="110.091" gradientUnits="userSpaceOnUse"><stop stop-color="#CEDDFC"/><stop offset=".175" stop-color="#CEDDFC"/><stop offset="1" stop-color="#B0B2B5"/></linearGradient><linearGradient id="paint38_linear" x1="42.328" y1="110.698" x2="42.328" y2="98.788" gradientUnits="userSpaceOnUse"><stop stop-color="#C2DFFF"/><stop offset="1"/></linearGradient><linearGradient id="paint39_linear" x1="29.895" y1="104.709" x2="54.642" y2="104.709" gradientUnits="userSpaceOnUse"><stop stop-color="#B0B2B5"/><stop offset=".087" stop-color="#B0B2B5"/><stop offset=".5" stop-color="#C1D1FA"/><stop offset="1" stop-color="#B0B2B5"/></linearGradient><linearGradient id="paint40_linear" x1="7.989" y1="100.609" x2="56.546" y2="100.609" gradientUnits="userSpaceOnUse"><stop stop-color="#CEDDFC"/><stop offset=".175" stop-color="#CEDDFC"/><stop offset="1" stop-color="#B0B2B5"/></linearGradient><linearGradient id="paint41_linear" x1="42.328" y1="101.216" x2="42.328" y2="89.306" gradientUnits="userSpaceOnUse"><stop stop-color="#C2DFFF"/><stop offset="1"/></linearGradient><linearGradient id="paint42_linear" x1="123.132" y1="177.461" x2="147.879" y2="177.461" gradientUnits="userSpaceOnUse"><stop stop-color="#B0B2B5"/><stop offset=".087" stop-color="#B0B2B5"/><stop offset=".5" stop-color="#C1D1FA"/><stop offset="1" stop-color="#B0B2B5"/></linearGradient><linearGradient id="paint43_linear" x1="101.226" y1="173.361" x2="149.783" y2="173.361" gradientUnits="userSpaceOnUse"><stop stop-color="#CEDDFC"/><stop offset=".175" stop-color="#CEDDFC"/><stop offset="1" stop-color="#B0B2B5"/></linearGradient><linearGradient id="paint44_linear" x1="135.565" y1="173.968" x2="135.565" y2="162.058" gradientUnits="userSpaceOnUse"><stop stop-color="#C2DFFF"/><stop offset="1"/></linearGradient><linearGradient id="paint45_linear" x1="123.132" y1="167.979" x2="147.879" y2="167.979" gradientUnits="userSpaceOnUse"><stop stop-color="#B0B2B5"/><stop offset=".087" stop-color="#B0B2B5"/><stop offset=".5" stop-color="#C1D1FA"/><stop offset="1" stop-color="#B0B2B5"/></linearGradient><linearGradient id="paint46_linear" x1="101.226" y1="163.879" x2="149.783" y2="163.879" gradientUnits="userSpaceOnUse"><stop stop-color="#CEDDFC"/><stop offset=".175" stop-color="#CEDDFC"/><stop offset="1" stop-color="#B0B2B5"/><stop offset="1" stop-color="#B0B2B5"/></linearGradient><linearGradient id="paint47_linear" x1="135.565" y1="150.511" x2="135.565" y2="164.573" gradientUnits="userSpaceOnUse"><stop stop-color="#DDE8FF"/><stop offset=".849" stop-color="#E4F1FF"/><stop offset="1" stop-color="#E4F1FF"/></linearGradient><linearGradient id="paint48_linear" x1="123.132" y1="158.497" x2="147.879" y2="158.497" gradientUnits="userSpaceOnUse"><stop stop-color="#B0B2B5"/><stop offset=".087" stop-color="#B0B2B5"/><stop offset=".5" stop-color="#C1D1FA"/><stop offset="1" stop-color="#B0B2B5"/></linearGradient><linearGradient id="paint49_linear" x1="101.226" y1="154.397" x2="149.783" y2="154.397" gradientUnits="userSpaceOnUse"><stop stop-color="#C1D1FA"/><stop offset=".825" stop-color="#B0B2B5"/><stop offset="1" stop-color="#B0B2B5"/></linearGradient><linearGradient id="paint50_linear" x1="135.565" y1="155.004" x2="135.565" y2="143.094" gradientUnits="userSpaceOnUse"><stop stop-color="#C2DFFF"/><stop offset="1"/></linearGradient><linearGradient id="paint51_linear" x1="108.947" y1="45.204" x2="108.947" y2="61.616" gradientUnits="userSpaceOnUse"><stop stop-color="#B0B2B5"/><stop offset=".849" stop-color="#E4F1FF"/><stop offset="1" stop-color="#E4F1FF"/></linearGradient><linearGradient id="paint52_linear" x1="119.128" y1="49.324" x2="119.128" y2="66.896" gradientUnits="userSpaceOnUse"><stop stop-color="#B0B2B5"/><stop offset=".849" stop-color="#E4F1FF"/><stop offset="1" stop-color="#E4F1FF"/></linearGradient><linearGradient id="paint53_linear" x1="135.092" y1="47.65" x2="135.092" y2="77.775" gradientUnits="userSpaceOnUse"><stop stop-color="#B0B2B5"/><stop offset=".849" stop-color="#E4F1FF"/><stop offset="1" stop-color="#E4F1FF"/></linearGradient><linearGradient id="paint54_linear" x1="124.91" y1="41.527" x2="124.91" y2="68.869" gradientUnits="userSpaceOnUse"><stop stop-color="#B0B2B5"/><stop offset=".849" stop-color="#E4F1FF"/><stop offset="1" stop-color="#E4F1FF"/></linearGradient><linearGradient id="paint55_linear" x1="151.054" y1="45.977" x2="151.054" y2="88.654" gradientUnits="userSpaceOnUse"><stop stop-color="#B0B2B5"/><stop offset=".849" stop-color="#E4F1FF"/><stop offset="1" stop-color="#E4F1FF"/></linearGradient><linearGradient id="paint56_linear" x1="140.874" y1="37.847" x2="140.874" y2="76.121" gradientUnits="userSpaceOnUse"><stop stop-color="#B0B2B5"/><stop offset=".849" stop-color="#E4F1FF"/><stop offset="1" stop-color="#E4F1FF"/></linearGradient><linearGradient id="paint57_linear" x1="141.16" y1="40.651" x2="141.16" y2="39.381" gradientUnits="userSpaceOnUse"><stop stop-color="#C2DFFF"/><stop offset="1"/></linearGradient><linearGradient id="paint58_linear" x1="140.478" y1="69.521" x2="140.478" y2="44.618" gradientUnits="userSpaceOnUse"><stop stop-color="#C2DFFF"/><stop offset="1"/></linearGradient><linearGradient id="paint59_linear" x1="142.028" y1="41.901" x2="142.028" y2="66.355" gradientUnits="userSpaceOnUse"><stop stop-color="#3E4A84"/><stop offset="1" stop-color="#C2DFFF"/></linearGradient><linearGradient id="paint60_linear" x1="144.603" y1="42.646" x2="144.603" y2="41.376" gradientUnits="userSpaceOnUse"><stop stop-color="#C2DFFF"/><stop offset="1"/></linearGradient><linearGradient id="paint61_linear" x1="143.921" y1="71.517" x2="143.921" y2="46.614" gradientUnits="userSpaceOnUse"><stop stop-color="#C2DFFF"/><stop offset="1"/></linearGradient><linearGradient id="paint62_linear" x1="145.471" y1="43.897" x2="145.471" y2="68.35" gradientUnits="userSpaceOnUse"><stop stop-color="#3E4A84"/><stop offset="1" stop-color="#C2DFFF"/></linearGradient><linearGradient id="paint63_linear" x1="148.046" y1="44.642" x2="148.046" y2="43.372" gradientUnits="userSpaceOnUse"><stop stop-color="#C2DFFF"/><stop offset="1"/></linearGradient><linearGradient id="paint64_linear" x1="147.364" y1="73.512" x2="147.364" y2="48.609" gradientUnits="userSpaceOnUse"><stop stop-color="#C2DFFF"/><stop offset="1"/></linearGradient><linearGradient id="paint65_linear" x1="148.914" y1="45.892" x2="148.914" y2="70.346" gradientUnits="userSpaceOnUse"><stop stop-color="#3E4A84"/><stop offset="1" stop-color="#C2DFFF"/></linearGradient><linearGradient id="paint66_linear" x1="167.04" y1="61.354" x2="167.04" y2="87.586" gradientUnits="userSpaceOnUse"><stop stop-color="#B0B2B5"/><stop offset=".849" stop-color="#E4F1FF"/><stop offset="1" stop-color="#E4F1FF"/></linearGradient><linearGradient id="paint67_linear" x1="156.859" y1="60.04" x2="156.859" y2="87.382" gradientUnits="userSpaceOnUse"><stop stop-color="#B0B2B5"/><stop offset=".849" stop-color="#E4F1FF"/><stop offset="1" stop-color="#E4F1FF"/></linearGradient><linearGradient id="paint68_linear" x1="159.152" y1="82.968" x2="159.152" y2="87.325" gradientUnits="userSpaceOnUse"><stop stop-color="#B0B2B5"/><stop offset=".849" stop-color="#E4F1FF"/><stop offset="1" stop-color="#E4F1FF"/></linearGradient><linearGradient id="paint69_linear" x1="165.211" y1="84.428" x2="165.211" y2="88.673" gradientUnits="userSpaceOnUse"><stop stop-color="#B0B2B5"/><stop offset=".849" stop-color="#E4F1FF"/><stop offset="1" stop-color="#E4F1FF"/></linearGradient><linearGradient id="paint70_linear" x1="159.152" y1="80.001" x2="159.152" y2="84.358" gradientUnits="userSpaceOnUse"><stop stop-color="#B0B2B5"/><stop offset=".849" stop-color="#E4F1FF"/><stop offset="1" stop-color="#E4F1FF"/></linearGradient><linearGradient id="paint71_linear" x1="165.211" y1="81.461" x2="165.211" y2="85.706" gradientUnits="userSpaceOnUse"><stop stop-color="#B0B2B5"/><stop offset=".849" stop-color="#E4F1FF"/><stop offset="1" stop-color="#E4F1FF"/></linearGradient><linearGradient id="paint72_linear" x1="159.152" y1="77.034" x2="159.152" y2="81.391" gradientUnits="userSpaceOnUse"><stop stop-color="#B0B2B5"/><stop offset=".849" stop-color="#E4F1FF"/><stop offset="1" stop-color="#E4F1FF"/></linearGradient><linearGradient id="paint73_linear" x1="165.211" y1="78.494" x2="165.211" y2="82.739" gradientUnits="userSpaceOnUse"><stop stop-color="#B0B2B5"/><stop offset=".849" stop-color="#E4F1FF"/><stop offset="1" stop-color="#E4F1FF"/></linearGradient><linearGradient id="paint74_linear" x1="159.152" y1="74.067" x2="159.152" y2="78.424" gradientUnits="userSpaceOnUse"><stop stop-color="#B0B2B5"/><stop offset=".849" stop-color="#E4F1FF"/><stop offset="1" stop-color="#E4F1FF"/></linearGradient><linearGradient id="paint75_linear" x1="165.211" y1="75.527" x2="165.211" y2="79.772" gradientUnits="userSpaceOnUse"><stop stop-color="#B0B2B5"/><stop offset=".849" stop-color="#E4F1FF"/><stop offset="1" stop-color="#E4F1FF"/></linearGradient><linearGradient id="paint76_linear" x1="159.152" y1="71.1" x2="159.152" y2="75.457" gradientUnits="userSpaceOnUse"><stop stop-color="#B0B2B5"/><stop offset=".849" stop-color="#E4F1FF"/><stop offset="1" stop-color="#E4F1FF"/></linearGradient><linearGradient id="paint77_linear" x1="165.211" y1="72.56" x2="165.211" y2="76.805" gradientUnits="userSpaceOnUse"><stop stop-color="#B0B2B5"/><stop offset=".849" stop-color="#E4F1FF"/><stop offset="1" stop-color="#E4F1FF"/></linearGradient><linearGradient id="paint78_linear" x1="159.152" y1="68.133" x2="159.152" y2="72.49" gradientUnits="userSpaceOnUse"><stop stop-color="#B0B2B5"/><stop offset=".849" stop-color="#E4F1FF"/><stop offset="1" stop-color="#E4F1FF"/></linearGradient><linearGradient id="paint79_linear" x1="165.211" y1="69.593" x2="165.211" y2="73.838" gradientUnits="userSpaceOnUse"><stop stop-color="#B0B2B5"/><stop offset=".849" stop-color="#E4F1FF"/><stop offset="1" stop-color="#E4F1FF"/></linearGradient><linearGradient id="paint80_linear" x1="159.152" y1="65.166" x2="159.152" y2="69.523" gradientUnits="userSpaceOnUse"><stop stop-color="#B0B2B5"/><stop offset=".849" stop-color="#E4F1FF"/><stop offset="1" stop-color="#E4F1FF"/></linearGradient><linearGradient id="paint81_linear" x1="165.211" y1="66.626" x2="165.211" y2="70.871" gradientUnits="userSpaceOnUse"><stop stop-color="#B0B2B5"/><stop offset=".849" stop-color="#E4F1FF"/><stop offset="1" stop-color="#E4F1FF"/></linearGradient><linearGradient id="paint82_linear" x1="172.799" y1="30.492" x2="172.799" y2="90.623" gradientUnits="userSpaceOnUse"><stop stop-color="#B0B2B5"/><stop offset=".849" stop-color="#E4F1FF"/><stop offset="1" stop-color="#E4F1FF"/></linearGradient><linearGradient id="paint83_linear" x1="182.979" y1="42.63" x2="182.979" y2="110.407" gradientUnits="userSpaceOnUse"><stop stop-color="#B0B2B5"/><stop offset=".849" stop-color="#E4F1FF"/><stop offset="1" stop-color="#E4F1FF"/></linearGradient><linearGradient id="paint84_linear" x1="172.983" y1="85.729" x2="172.983" y2="45.074" gradientUnits="userSpaceOnUse"><stop stop-color="#C2DFFF"/><stop offset="1"/></linearGradient><linearGradient id="paint85_linear" x1="188.783" y1="52.685" x2="188.783" y2="101.885" gradientUnits="userSpaceOnUse"><stop stop-color="#B0B2B5"/><stop offset=".849" stop-color="#E4F1FF"/><stop offset="1" stop-color="#E4F1FF"/></linearGradient><linearGradient id="paint86_linear" x1="198.964" y1="62.818" x2="198.964" y2="118.043" gradientUnits="userSpaceOnUse"><stop stop-color="#B0B2B5"/><stop offset=".849" stop-color="#E4F1FF"/><stop offset="1" stop-color="#E4F1FF"/></linearGradient><linearGradient id="paint87_linear" x1="176.189" y1="55.125" x2="199.973" y2="55.125" gradientUnits="userSpaceOnUse"><stop stop-color="#3E4A84"/><stop offset="1" stop-color="#00C9BC"/></linearGradient><linearGradient id="paint88_linear" x1="191.055" y1="98.912" x2="191.055" y2="61.721" gradientUnits="userSpaceOnUse"><stop stop-color="#C2DFFF"/><stop offset="1"/></linearGradient><linearGradient id="paint89_linear" x1="197.114" y1="58.127" x2="197.114" y2="94.305" gradientUnits="userSpaceOnUse"><stop stop-color="#B0B2B5"/><stop offset="1" stop-color="#C2DFFF"/></linearGradient><linearGradient id="paint90_linear" x1="124.909" y1="64.358" x2="124.909" y2="48.337" gradientUnits="userSpaceOnUse"><stop stop-color="#C2DFFF"/><stop offset="1"/></linearGradient><radialGradient id="paint2_radial" cx="0" cy="0" r="1" gradientUnits="userSpaceOnUse" gradientTransform="matrix(88.488 44.15494 -13.22825 26.50986 134.002 137.887)"><stop stop-color="#114A75"/><stop offset=".179" stop-color="#114A75"/><stop offset=".468" stop-color="#114A75"/><stop offset="1" stop-color="gray"/></radialGradient><radialGradient id="paint10_radial" cx="0" cy="0" r="1" gradientUnits="userSpaceOnUse" gradientTransform="matrix(88.2078 44.71186 -11.3492 22.38976 88.947 165.359)"><stop stop-color="#114A75"/><stop offset=".179" stop-color="#114A75"/><stop offset=".468" stop-color="#114A75"/><stop offset="1" stop-color="gray"/></radialGradient></defs></svg>