<svg width="59" height="62" fill="none" xmlns="http://www.w3.org/2000/svg"><path fill-rule="evenodd" clip-rule="evenodd" d="M15.895 26.768c-.925-.72-1.77-2.154-2.144-3.8-.54-2.371.09-4.293 1.41-4.29h.044a1.117 1.117 0 01.287.036c-.452-3.095-.755-6.069-.202-8.967.083-.524.23-1.08.442-1.646C16.792 4.4 21.354 0 29.06 0c7.704 0 12.266 4.4 13.325 8.101.212.566.36 1.121.445 1.646.55 2.898.248 5.872-.204 8.967.095-.021.196-.034.165-.029a1.32 1.32 0 00.129-.008h.036c1.323-.002 1.953 1.92 1.413 4.291-.374 1.646-1.219 3.08-2.144 3.8-3.242 7.466-7.352 11.982-13.165 11.982-5.813 0-9.923-4.516-13.165-11.982zm24.555-.772c.13-.3.331-.56.59-.76.472-.366 1.133-1.35 1.438-2.696.14-.595.163-1.065.142-1.41.003-.045.003-.084.003-.125a1.63 1.63 0 00-.853-1.431c-.963-.308-1.798 2.048-2.25 3.356.486-2.374 1.152-5.436 1.163-7.376-10.145-.364-14.06-3.069-17.537-6.549-2.544.243-4.497 2.22-5.717 4.945v1.563l.006-.013c0 1.938.674 5.032 1.165 7.43-.453-1.308-1.287-3.663-2.25-3.356a1.63 1.63 0 00-.85 1.555c-.021.346.002.816.142 1.41.304 1.346.966 2.33 1.439 2.698.258.199.46.46.589.76 3.087 7.108 5.577 10.816 11.39 10.816 5.813 0 8.303-3.708 11.39-10.817zM27.125 40.688c-.822.586-1.457 1.237-1.938 1.937.837 1.746 2.375 2.793 3.876 3.875 1.58-1.147 3.002-2.374 3.875-3.875-.494-.75-1.103-1.418-1.938-1.938h-3.875z" fill="#A570F8"/><path fill-rule="evenodd" clip-rule="evenodd" d="M29.063 42.625l-3.876 9.688c.874 1.57 2.292 2.78 3.876 3.874 1.599-1.136 2.958-2.394 3.875-3.874l-3.875-9.688z" fill="#A570F8"/><path fill-rule="evenodd" clip-rule="evenodd" d="M2.239 47.792c3.753-3.917 10.556-4.842 17.136-7.105-.285 2.25-.264 4.289.475 6.128 1.036 2.524 4.084 8.12 9.212 11.276 5.129-3.156 8.177-8.752 9.213-11.276.739-1.84.76-3.877.475-6.127 6.58 2.262 13.383 3.187 17.136 7.104 2.168 3.926 2.34 8.4 2.204 14.208H.035c-.137-5.807.036-10.282 2.204-14.208z" fill="#A570F8"/></svg>