<svg width="87" height="87" fill="none" xmlns="http://www.w3.org/2000/svg"><path d="M43.5 87C67.524 87 87 67.524 87 43.5S67.524 0 43.5 0 0 19.476 0 43.5 19.476 87 43.5 87z" fill="#AC63FF"/><path d="M77.59 40.615c-1.643-1.465-4.483.044-5.46.577-.621.355-1.465 1.198-2.885 2.619-.977 1.02-2.13 2.175-3.019 2.93-2.13 1.775-3.906 2.574-4.527 2.84l-10.786-1.154h-.133c-.444 0-3.374-.488-5.727-.888-4.571-.754-7.9-1.287-9.055-1.287-1.997 0-4.927.622-6.79 2.353-1.022 1.02-2.753 2.663-3.996 3.862l-1.11 1.065c-.31.31-.62.621-.976.888-.178.177-.31.31-.488.443-.222.178-.355.355-.533.489l-1.51-1.51-7.279 7.28 16.202 16.202 7.28-7.28-1.11-1.11c.4-.444.754-.887 1.065-1.287.977-1.198 1.51-1.82 2.175-1.82.089 0 10.742-.133 19.62 0h.044c6.658 0 16.512-12.917 19.13-19.708 1.022-2.708.978-4.483-.132-5.504zM29.74 71.908a2.131 2.131 0 112.13-2.13c-.044 1.198-.976 2.13-2.13 2.13zm44.254-23.614c-3.95 7.19-11.363 15.136-15.447 15.136h-.044c-8.877-.133-19.53 0-19.664 0-1.775 0-2.885 1.288-4.039 2.708-.266.31-.577.666-.888 1.02-.31-.31-.666-.62-1.11-1.02l-.133-.089-8.966-8.966c.133-.133.31-.267.488-.444.178-.178.355-.355.533-.488.31-.267.621-.577.932-.888l1.154-1.065c1.243-1.199 2.974-2.886 3.995-3.862 1.243-1.154 3.551-1.642 5.15-1.642 1.02 0 5.237.71 8.655 1.242 3.373.533 5.326.888 6.036.888l9.455 1.021c.533.71.666 1.731.31 2.619-.399.976-1.33 1.51-2.618 1.51H45.986v2.396h11.807c2.22 0 4.04-1.11 4.794-2.974.532-1.198.532-2.486.133-3.684.888-.355 2.752-1.287 4.971-3.107 1.021-.844 2.175-2.042 3.24-3.063.844-.843 1.954-1.998 2.309-2.175 1.553-.843 2.308-.932 2.574-.932h.133c.178.222.267 1.864-1.953 5.859zm-20.729-3.107c-9.41 0-17.089-7.68-17.089-17.09s7.68-17.089 17.09-17.089 17.089 7.68 17.089 17.09-7.68 17.089-17.09 17.089zm0-32.58c-8.522 0-15.491 6.924-15.491 15.49 0 8.567 6.924 15.492 15.491 15.492s15.492-6.925 15.492-15.491c0-8.567-6.97-15.492-15.492-15.492zm0 28.896c-7.368 0-13.405-5.993-13.405-13.405 0-7.369 5.992-13.405 13.405-13.405 7.369 0 13.405 5.992 13.405 13.405 0 7.368-5.992 13.405-13.405 13.405zm0-25.213c-6.48 0-11.807 5.283-11.807 11.808 0 6.525 5.282 11.807 11.807 11.807s11.807-5.282 11.807-11.807S59.79 16.29 53.265 16.29z" fill="#fff"/><path d="M49.714 20.019v5.371l3.818 2.22 4.66-2.708-8.478-4.883zm0 10.742v5.371l9.322-5.37V25.39l-9.322 5.371z" fill="#fff"/></svg>