<svg width="37" height="54" fill="none" xmlns="http://www.w3.org/2000/svg"><path d="M18.412 1C10.996 1 4.95 7.046 4.95 14.462v8.263c0 .564.484 1.048 1.048 1.048h4.151c.565 0 1.048-.484 1.048-1.048v-8.263a7.25 7.25 0 017.256-7.255 7.25 7.25 0 017.255 7.255v8.263c0 .564.483 1.048 1.048 1.048h4.151c.564 0 1.048-.484 1.048-1.048v-8.263C31.875 7.046 25.828 1 18.412 1z" stroke="#fff" stroke-width="1.653" stroke-miterlimit="10"/><path d="M6.16 23.732h24.828c2.861 0 5.159 2.338 5.159 5.16v18.621c0 2.862-2.338 5.16-5.16 5.16H6.16C3.297 52.672 1 50.333 1 47.512v-18.62a5.143 5.143 0 015.16-5.16z" stroke="#fff" stroke-width="1.653" stroke-miterlimit="10"/><path d="M14.543 30.907v5.24l3.708 2.136 4.514-2.62-8.222-4.756zm0 10.48v5.2l9.069-5.2v-5.24l-9.069 5.24z" fill="#fff"/></svg>