<svg width="66" height="67" fill="none" xmlns="http://www.w3.org/2000/svg"><path d="M64.273 29.607c-1.642-1.465-4.483.044-5.46.577-.62.355-1.464 1.198-2.884 2.619-.977 1.02-2.131 2.175-3.019 2.93-2.13 1.775-3.906 2.574-4.527 2.84l-10.787-1.154h-.133c-.444 0-3.373-.488-5.726-.888-4.572-.755-7.9-1.287-9.055-1.287-1.997 0-4.927.621-6.791 2.352-1.021 1.021-2.752 2.664-3.995 3.862l-1.11 1.066c-.31.31-.621.62-.976.887a4.42 4.42 0 01-.489.444c-.222.178-.355.355-.532.488l-1.51-1.509L0 50.114l16.201 16.201 7.28-7.28-1.11-1.109c.4-.444.755-.888 1.066-1.287.976-1.199 1.509-1.82 2.175-1.82.089 0 10.742-.133 19.62 0h.044c6.658 0 16.512-12.917 19.13-19.708 1.022-2.708.977-4.483-.133-5.504zM16.423 60.9a2.131 2.131 0 112.131-2.13c-.044 1.198-.976 2.13-2.13 2.13zm44.255-23.614c-3.95 7.19-11.363 15.136-15.447 15.136h-.044c-8.878-.133-19.53 0-19.664 0-1.776 0-2.885 1.287-4.04 2.708-.266.31-.576.665-.887 1.02-.31-.31-.666-.62-1.11-1.02l-.133-.09-8.966-8.965c.133-.134.31-.267.488-.444a5.38 5.38 0 01.533-.489c.31-.266.621-.577.932-.887l1.154-1.066c1.243-1.198 2.974-2.885 3.995-3.861 1.243-1.155 3.55-1.643 5.149-1.643 1.02 0 5.237.71 8.655 1.243 3.374.533 5.327.888 6.037.888l9.455 1.02c.532.71.666 1.732.31 2.62-.4.976-1.331 1.509-2.618 1.509H32.669v2.397h11.808c2.219 0 4.039-1.11 4.793-2.974.533-1.199.533-2.486.134-3.684.887-.355 2.752-1.288 4.971-3.108 1.02-.843 2.175-2.041 3.24-3.062.844-.844 1.953-1.998 2.308-2.175 1.554-.844 2.309-.933 2.575-.933h.133c.178.223.266 1.865-1.953 5.86zM39.95 34.179c-9.41 0-17.09-7.68-17.09-17.09S30.54 0 39.95 0s17.09 7.68 17.09 17.09-7.68 17.089-17.09 17.089zm0-32.581c-8.522 0-15.491 6.924-15.491 15.491s6.924 15.492 15.491 15.492 15.49-6.925 15.49-15.492S48.471 1.598 39.95 1.598zm0 28.896c-7.368 0-13.405-5.992-13.405-13.405 0-7.368 5.992-13.405 13.405-13.405 7.368 0 13.405 5.993 13.405 13.405 0 7.369-5.992 13.405-13.405 13.405zm0-25.212c-6.48 0-11.807 5.282-11.807 11.807s5.282 11.807 11.807 11.807 11.807-5.282 11.807-11.807S46.474 5.282 39.95 5.282z" fill="#fff"/><path d="M36.398 9.01v5.371l3.817 2.22 4.661-2.708-8.478-4.883zm0 10.743v5.37l9.321-5.37v-5.371l-9.321 5.37z" fill="#fff"/></svg>