<svg width="79" height="79" fill="none" xmlns="http://www.w3.org/2000/svg"><path d="M39.5 79C61.315 79 79 61.315 79 39.5S61.315 0 39.5 0 0 17.685 0 39.5 17.685 79 39.5 79z" fill="#134E7A"/><path d="M39.661 11.205c-7.416 0-13.462 6.046-13.462 13.462v8.263c0 .564.484 1.048 1.048 1.048h4.151c.565 0 1.048-.484 1.048-1.048v-8.263a7.25 7.25 0 017.256-7.255 7.25 7.25 0 017.255 7.255v8.263c0 .564.483 1.048 1.047 1.048h4.152c.564 0 1.048-.484 1.048-1.048v-8.263c-.08-7.416-6.127-13.462-13.543-13.462z" stroke="#fff" stroke-width="1.653" stroke-miterlimit="10"/><path d="M27.408 33.938h24.829c2.861 0 5.159 2.337 5.159 5.159v18.621c0 2.862-2.338 5.16-5.16 5.16H27.409c-2.862 0-5.16-2.339-5.16-5.16V39.097a5.143 5.143 0 015.16-5.16z" stroke="#fff" stroke-width="1.653" stroke-miterlimit="10"/><path d="M35.792 41.112v5.24L39.5 48.49l4.514-2.62-8.222-4.757zm0 10.48v5.2l9.069-5.2v-5.24l-9.07 5.24z" fill="#fff"/></svg>