<svg width="79" height="73" fill="none" xmlns="http://www.w3.org/2000/svg"><path d="M66.221 37.077H12.778a.607.607 0 01-.621-.622c0-.355.266-.621.621-.621h53.443c.355 0 .622.266.622.621a.607.607 0 01-.622.622z" fill="#fff"/><path d="M25.429 61.135a.822.822 0 01-.31-.089c-.312-.177-.4-.532-.223-.843l28.098-48.072c.177-.31.532-.4.843-.222.31.178.4.533.222.843L25.962 60.825c-.134.178-.311.311-.533.311z" fill="#fff"/><path d="M53.526 61.135a.58.58 0 01-.532-.31L24.896 12.751c-.177-.31-.089-.665.222-.843.267-.178.666-.089.844.222l28.097 48.072c.178.31.089.666-.222.843a.641.641 0 01-.31.09z" fill="#fff"/><path d="M57.699 36.456c0 10.075-8.167 18.243-18.243 18.243-10.077 0-18.244-8.167-18.244-18.243 0-10.077 8.168-18.244 18.244-18.244 10.075 0 18.243 8.212 18.243 18.244z" fill="#fff"/><path d="M39.5 55.32c-10.387 0-18.82-8.433-18.82-18.82s8.433-18.82 18.82-18.82c10.386 0 18.82 8.433 18.82 18.82 0 10.342-8.434 18.82-18.82 18.82zm0-36.442c-9.721 0-17.622 7.9-17.622 17.622 0 9.72 7.9 17.622 17.622 17.622 9.72 0 17.622-7.901 17.622-17.622S49.22 18.878 39.5 18.878z" fill="#fff"/><path d="M39.5 48.618l-8.523-12.163L39.5 24.294l8.522 12.163-8.522 12.16zm32.802-5.46a6.652 6.652 0 01-4.705-1.953 6.652 6.652 0 01-1.953-4.705 6.65 6.65 0 011.953-4.705 6.652 6.652 0 014.706-1.953c1.775 0 3.462.71 4.705 1.953A6.652 6.652 0 0178.96 36.5a6.65 6.65 0 01-1.953 4.705 6.652 6.652 0 01-4.706 1.953zm0-12.162a5.44 5.44 0 00-3.861 1.598 5.44 5.44 0 00-1.598 3.862 5.44 5.44 0 001.598 3.861 5.44 5.44 0 003.861 1.598 5.44 5.44 0 003.862-1.598 5.44 5.44 0 001.598-3.861 5.44 5.44 0 00-1.598-3.862 5.44 5.44 0 00-3.862-1.598zM6.697 43.158a6.652 6.652 0 01-4.705-1.953A6.652 6.652 0 01.04 36.5a6.65 6.65 0 011.953-4.705 6.651 6.651 0 014.705-1.953c1.776 0 3.463.71 4.705 1.953a6.652 6.652 0 011.954 4.705c0 1.776-.71 3.462-1.954 4.705a6.652 6.652 0 01-4.705 1.953zm0-12.162a5.44 5.44 0 00-3.861 1.598 5.44 5.44 0 00-1.598 3.862 5.44 5.44 0 001.598 3.861 5.44 5.44 0 003.861 1.598 5.44 5.44 0 003.862-1.598 5.44 5.44 0 001.598-3.861 5.44 5.44 0 00-1.598-3.862 5.44 5.44 0 00-3.862-1.598zm49.936 41.458c-3.684 0-6.702-3.018-6.702-6.703 0-3.684 3.018-6.702 6.703-6.702 3.684 0 6.702 3.018 6.702 6.702-.044 3.685-3.018 6.703-6.703 6.703zm0-12.162a5.456 5.456 0 00-5.46 5.46 5.456 5.456 0 005.46 5.46 5.456 5.456 0 005.46-5.46c0-3.019-2.486-5.46-5.46-5.46zM22.366 13.907c-3.684 0-6.702-3.019-6.702-6.703S18.682.501 22.366.501 29.07 3.52 29.07 7.204s-3.019 6.703-6.703 6.703zm0-12.163a5.456 5.456 0 00-5.46 5.46 5.456 5.456 0 005.46 5.46 5.456 5.456 0 005.46-5.46 5.456 5.456 0 00-5.46-5.46zm34.267 12.163c-3.684 0-6.702-3.019-6.702-6.703S52.949.501 56.634.501c3.684 0 6.702 3.019 6.702 6.703s-3.018 6.703-6.703 6.703zm0-12.163a5.456 5.456 0 00-5.46 5.46 5.456 5.456 0 005.46 5.46 5.456 5.456 0 005.46-5.46c0-3.018-2.486-5.46-5.46-5.46zm-34.267 70.71c-3.684 0-6.702-3.018-6.702-6.703 0-3.684 3.018-6.702 6.702-6.702s6.703 3.018 6.703 6.702c0 3.685-3.019 6.703-6.703 6.703zm0-12.162a5.456 5.456 0 00-5.46 5.46 5.456 5.456 0 005.46 5.46 5.456 5.456 0 005.46-5.46 5.456 5.456 0 00-5.46-5.46z" fill="#fff"/><path d="M50.553 66.373H28.447a.607.607 0 01-.621-.622 5.456 5.456 0 00-5.46-5.46c-.887 0-1.73.223-2.574.667a.526.526 0 01-.444.044.594.594 0 01-.355-.31l-9.987-18.6a.525.525 0 01-.045-.443.594.594 0 01.31-.355c.534-.31.933-.577 1.288-.932a5.44 5.44 0 001.598-3.862 5.44 5.44 0 00-1.598-3.862c-.355-.355-.754-.621-1.287-.932-.133-.089-.266-.222-.31-.355a.525.525 0 01.044-.444l9.987-18.598c.089-.134.222-.267.355-.311.177-.044.31-.044.444.044.843.444 1.686.666 2.574.666a5.456 5.456 0 005.46-5.46c0-.355.266-.621.621-.621h22.106c.355 0 .62.266.62.621a5.456 5.456 0 005.46 5.46c.888 0 1.732-.222 2.575-.666a.525.525 0 01.444-.044.594.594 0 01.355.31l9.987 18.6c.09.132.09.31.045.443a.594.594 0 01-.311.355c-.533.31-.932.577-1.287.932a5.439 5.439 0 00-1.598 3.862c0 1.465.577 2.84 1.598 3.862.355.355.754.621 1.287.932.133.089.266.222.31.355a.525.525 0 01-.044.444L60.007 60.69c-.089.133-.222.267-.355.311-.178.044-.31.044-.444-.044-.843-.444-1.687-.666-2.574-.666a5.456 5.456 0 00-5.46 5.46c-.044.355-.31.62-.621.62zM29.024 65.13h20.951c.311-3.418 3.196-6.081 6.659-6.081.887 0 1.775.177 2.618.532l9.41-17.577a6.856 6.856 0 01-1.065-.843 6.651 6.651 0 01-1.953-4.706c0-1.775.71-3.462 1.953-4.705.311-.31.666-.577 1.066-.843L59.208 13.33a6.688 6.688 0 01-2.574.533c-3.463 0-6.348-2.663-6.659-6.081h-20.95c-.311 3.418-3.197 6.081-6.659 6.081a6.739 6.739 0 01-2.619-.533l-9.41 17.578c.4.266.755.533 1.066.843a6.652 6.652 0 011.952 4.706c0 1.775-.71 3.462-1.953 4.705-.31.31-.665.577-1.065.843l9.41 17.578a6.688 6.688 0 012.575-.533c3.506 0 6.392 2.708 6.702 6.081zm3.773 4.75H31.6a.607.607 0 01-.622-.622c0-.355.267-.621.622-.621h1.198c.355 0 .622.266.622.621a.607.607 0 01-.622.622zm14.603 0H35.24a.607.607 0 01-.622-.622c0-.355.267-.621.622-.621H47.4c.355 0 .621.266.621.621-.044.355-.31.622-.621.622zm.001-65.694h-1.199a.607.607 0 01-.62-.622c0-.355.265-.621.62-.621h1.199c.355 0 .621.266.621.621-.044.311-.31.622-.621.622zm-3.64 0H31.599a.607.607 0 01-.622-.622c0-.355.267-.621.622-.621H43.76c.355 0 .621.266.621.621-.044.311-.31.622-.621.622z" fill="#fff"/><path d="M41.276 27.844l-3.73 2.131-3.772 2.175v-8.656l3.773 2.175 3.729 2.175z" fill="#FAAD17"/><path d="M48.777 32.15l-3.728 2.175-3.773 2.175v-8.7l3.773 2.175 3.728 2.175z" fill="#FAAD17"/><path d="M41.276 27.8v8.7l-3.729-2.175-3.773-2.175 3.773-2.175 3.729-2.175z" fill="#FAAD17"/><path d="M41.276 45.156l-3.773 2.13-3.729 2.175v-8.655l3.729 2.175 3.773 2.175zm7.501-4.35l-3.773 2.175-3.728 2.13v-8.655l3.773 2.175 3.728 2.175z" fill="#1ABDC1"/><path d="M41.276 36.5v8.656l-3.773-2.175-3.729-2.175 3.773-2.175 3.729-2.131zm7.501-4.35v8.656l-3.773-2.175-3.728-2.175 3.773-2.131 3.728-2.175z" fill="#1ABDC1"/></svg>