<svg width="72" height="71" fill="none" xmlns="http://www.w3.org/2000/svg"><path d="M53.276 17.747h-35.51c-.666 0-1.199.532-1.199 1.198v33.158c0 .666.533 1.198 1.199 1.198h35.51c.666 0 1.198-.532 1.198-1.198V18.945c0-.666-.532-1.198-1.198-1.198zm-3.551 31.959h-3.551c0 .666-.533 1.198-1.199 1.198a1.194 1.194 0 01-1.198-1.198h-3.551c0 .666-.533 1.198-1.199 1.198a1.193 1.193 0 01-1.198-1.198h-3.551c0 .666-.533 1.198-1.199 1.198a1.194 1.194 0 01-1.198-1.198H28.33c0 .666-.533 1.198-1.199 1.198a1.193 1.193 0 01-1.198-1.198h-3.551c0 .666-.533 1.198-1.199 1.198a1.193 1.193 0 01-1.198-1.198 1.193 1.193 0 01-1.198-1.199c0-.665.532-1.198 1.198-1.198v-3.55a1.194 1.194 0 01-1.198-1.2c0-.665.532-1.198 1.198-1.198v-3.55a1.194 1.194 0 01-1.198-1.2c0-.665.532-1.198 1.198-1.198v-3.55a1.193 1.193 0 01-1.198-1.2c0-.665.532-1.198 1.198-1.198v-3.55a1.194 1.194 0 01-1.198-1.2c0-.665.532-1.198 1.198-1.198V22.32c0-.666.533-1.199 1.198-1.199.666 0 1.199.533 1.199 1.199v23.97l3.817-2.309 2.22-4.439c.266-.488.799-.754 1.331-.621l3.684.932 2.042-6.081a1.187 1.187 0 011.11-.8h4.261l2.841-2.84v-3.063c0-.4.178-.754.533-.976l3.55-2.353c.533-.355 1.288-.222 1.643.31.355.534.222 1.288-.31 1.643l-3.019 1.998v2.93c0 .31-.133.62-.355.843l-3.551 3.55a1.213 1.213 0 01-.843.356h-3.862l-2.086 6.303a1.15 1.15 0 01-1.42.754l-3.818-.932-1.953 3.862c-.089.222-.267.355-.444.488l-2.264 1.332h24.147c.666 0 1.198.533 1.198 1.198.09.8-.443 1.332-1.11 1.332z" fill="#fff"/><path d="M35.52 2.344a33.017 33.017 0 0118.288 5.504c.533.31 1.243.178 1.598-.355a1.146 1.146 0 00-.31-1.598C40.448-3.78 20.917-1.34 9.154 11.71c-11.762 13.05-12.25 32.714-1.11 46.296h-5.77c-.666 0-1.198.533-1.198 1.199s.532 1.198 1.198 1.198h8.39c.665 0 1.198-.532 1.198-1.198v-8.39c0-.665-.533-1.198-1.198-1.198-.666 0-1.199.533-1.199 1.199v5.193C1.608 46.022.144 32.439 5.692 21.03 11.241 9.624 22.826 2.344 35.521 2.344zm33.247 10.653c.666 0 1.199-.532 1.199-1.198 0-.666-.533-1.199-1.199-1.199h-8.39c-.665 0-1.198.533-1.198 1.199v8.39c0 .665.533 1.198 1.199 1.198s1.198-.533 1.198-1.199v-5.193c10.032 12.783 9.322 30.982-1.687 42.923-11.008 11.984-29.073 14.16-42.656 5.193-.533-.31-1.243-.177-1.598.355a1.145 1.145 0 00.31 1.598c14.649 9.677 34.18 7.235 45.942-5.815 11.763-13.05 12.251-32.714 1.11-46.296h5.77v.044z" fill="#fff"/><path d="M28.24 24.494l-1.908 1.065-1.908 1.11v-4.395l1.908 1.11 1.909 1.11zm3.818 2.175l-1.909 1.11-1.908 1.109v-4.394l1.909 1.065 1.908 1.11z" fill="#FAAD17"/><path d="M28.24 24.494v4.394l-1.908-1.11-1.953-1.11 1.953-1.109 1.909-1.065z" fill="#FAAD17"/><path d="M28.196 33.282l-1.908 1.11-1.909 1.11v-4.395l1.909 1.066 1.908 1.11zm3.862-2.175l-1.909 1.066-1.953 1.11.045-2.22v-2.175l1.908 1.11 1.909 1.11z" fill="#1ABDC1"/><path d="M28.24 28.888v2.22l-.044 2.174-1.908-1.11-1.909-1.065 1.909-1.11 1.953-1.11zm3.818-2.219v4.439l-1.909-1.11-1.908-1.11 1.908-1.11 1.91-1.11z" fill="#1ABDC1"/></svg>