<svg width="87" height="87" fill="none" xmlns="http://www.w3.org/2000/svg"><path d="M43.5 87C67.524 87 87 67.524 87 43.5S67.524 0 43.5 0 0 19.476 0 43.5 19.476 87 43.5 87z" fill="#1ABDC1"/><path d="M61.477 26.1h-35.51c-.666 0-1.198.533-1.198 1.199v33.157c0 .666.532 1.199 1.198 1.199h35.51c.666 0 1.199-.533 1.199-1.199V27.3c0-.666-.533-1.199-1.199-1.199zm-3.55 31.96h-3.552c0 .665-.532 1.198-1.198 1.198a1.193 1.193 0 01-1.199-1.199h-3.55c0 .666-.533 1.199-1.2 1.199a1.193 1.193 0 01-1.198-1.199h-3.55c0 .666-.533 1.199-1.2 1.199a1.193 1.193 0 01-1.198-1.199h-3.55c0 .666-.533 1.199-1.2 1.199a1.193 1.193 0 01-1.198-1.199h-3.55c0 .666-.533 1.199-1.2 1.199a1.193 1.193 0 01-1.198-1.199 1.194 1.194 0 01-1.198-1.198c0-.666.533-1.199 1.198-1.199v-3.55a1.193 1.193 0 01-1.198-1.2c0-.665.533-1.198 1.198-1.198v-3.55a1.194 1.194 0 01-1.198-1.2c0-.665.533-1.198 1.198-1.198v-3.55a1.193 1.193 0 01-1.198-1.2c0-.665.533-1.197 1.198-1.197v-3.552a1.193 1.193 0 01-1.198-1.198c0-.666.533-1.199 1.198-1.199v-1.198c0-.666.533-1.198 1.199-1.198s1.198.532 1.198 1.198v23.97l3.818-2.309 2.22-4.438c.265-.489.798-.755 1.33-.622l3.685.932 2.042-6.08a1.187 1.187 0 011.11-.8h4.26l2.841-2.84v-3.063c0-.4.178-.755.533-.977l3.551-2.353c.533-.355 1.287-.221 1.642.311.356.533.222 1.287-.31 1.642l-3.019 1.998v2.93c0 .31-.133.621-.355.843l-3.55 3.55a1.213 1.213 0 01-.844.356h-3.862l-2.086 6.303a1.15 1.15 0 01-1.42.755l-3.818-.933-1.953 3.862c-.089.222-.266.355-.444.488L33.69 55.53h24.147c.666 0 1.199.533 1.199 1.199.089.799-.444 1.331-1.11 1.331z" fill="#fff"/><path d="M43.722 10.697a33.017 33.017 0 0118.288 5.504c.532.311 1.243.178 1.598-.355a1.145 1.145 0 00-.31-1.598c-14.649-9.676-34.18-7.235-45.942 5.815-11.763 13.05-12.251 32.714-1.11 46.297h-5.77c-.666 0-1.199.532-1.199 1.198 0 .666.533 1.198 1.199 1.198h8.389c.666 0 1.198-.532 1.198-1.198v-8.39c0-.665-.532-1.198-1.198-1.198-.666 0-1.198.533-1.198 1.199v5.193c-7.857-9.987-9.322-23.57-3.774-34.977 5.549-11.408 17.134-18.688 29.83-18.688zM76.969 21.35c.665 0 1.198-.532 1.198-1.198 0-.666-.533-1.198-1.198-1.198h-8.39c-.666 0-1.198.532-1.198 1.198v8.39c0 .665.532 1.198 1.198 1.198.666 0 1.199-.533 1.199-1.199v-5.193c10.031 12.784 9.321 30.983-1.687 42.923-11.008 11.985-29.074 14.16-42.657 5.193-.532-.31-1.242-.177-1.598.355a1.145 1.145 0 00.311 1.598c14.648 9.677 34.179 7.236 45.941-5.814 11.763-13.05 12.251-32.714 1.11-46.297h5.77v.045z" fill="#fff"/><path d="M36.442 32.847l-1.908 1.065-1.91 1.11v-4.395l1.91 1.11 1.908 1.11zm3.818 2.175l-1.91 1.11-1.908 1.11v-4.395l1.909 1.065 1.909 1.11z" fill="#FAAD17"/><path d="M36.442 32.847v4.395l-1.909-1.11-1.953-1.11 1.953-1.11 1.91-1.065z" fill="#FAAD17"/><path d="M36.398 41.635l-1.909 1.11-1.909 1.11V39.46l1.91 1.066 1.908 1.11zm3.862-2.175l-1.91 1.066-1.952 1.11.044-2.22v-2.175l1.909 1.11 1.908 1.11z" fill="#1ABDC1"/><path d="M36.442 37.241v2.22l-.044 2.175-1.909-1.11-1.909-1.065 1.91-1.11 1.952-1.11zm3.818-2.219v4.439l-1.91-1.11-1.908-1.11 1.909-1.11 1.909-1.11z" fill="#1ABDC1"/></svg>